<?xml version="1.0" encoding="UTF-8"?><!DOCTYPE svg PUBLIC "-//W3C//DTD SVG 1.1//EN" "http://www.w3.org/Graphics/SVG/1.1/DTD/svg11.dtd"><svg xmlns="http://www.w3.org/2000/svg" xmlns:xlink="http://www.w3.org/1999/xlink"><symbol id="bike" viewBox="0 0 24 21">
<path d="M16,3.6c1,0,1.8-0.8,1.8-1.8S17,0,16,0s-1.8,0.8-1.8,1.8S15,3.6,16,3.6z M19,11c-2.8,0-5,2.3-5,5s2.2,5,5,5s5-2.3,5-5
  S21.8,11,19,11z M19,19.6c-1.9,0-3.5-1.6-3.5-3.5s1.6-3.5,3.5-3.5s3.5,1.6,3.5,3.5S20.9,19.6,19,19.6z M14.8,8.9H19V7.1h-3.2
  l-1.9-3.3C13.6,3.3,13.1,3,12.4,3c-0.5,0-0.9,0.2-1.2,0.5L7.5,7.2C7.2,7.5,7,7.9,7,8.4C7,9,7.3,9.6,7.8,9.9l3.3,2v5H13v-6.5
  l-2.2-1.7l2.3-2.4L14.8,8.9z M5,11c-2.8,0-5,2.3-5,5s2.2,5,5,5s5-2.3,5-5S7.8,11,5,11z M5,19.6c-1.9,0-3.5-1.6-3.5-3.5
  s1.6-3.5,3.5-3.5s3.5,1.5,3.5,3.5S6.9,19.6,5,19.6z"/>
</symbol><symbol id="bus" viewBox="0 0 17 21">
<path d="M16.2,3.1c-0.2-1.2-1-1.6-2.1-2.1C13,0.6,10.4,0,8.5,0C6.6,0,4,0.6,2.9,1C1.8,1.5,1.1,1.9,0.8,3.1L0,9.5v8.8h1.4v1.4
  c0,1.7,2.5,1.7,2.5,0v-1.4h4.5h0h4.7v1.4c0,1.7,2.5,1.7,2.5,0v-1.4H17V9.5L16.2,3.1z M5,1.6h3.4H12c0.7,0,0.7,1,0,1H8.4H5
  C4.3,2.7,4.3,1.6,5,1.6z M2.7,15.6c-0.6,0-1.2-0.5-1.2-1.2c0-0.7,0.5-1.2,1.2-1.2c0.6,0,1.2,0.5,1.2,1.2C3.8,15,3.3,15.6,2.7,15.6z
  M8.4,10.2H2.2c-0.6,0-0.7-0.4-0.7-0.9l0.6-4.7c0.1-0.6,0.3-0.9,1-0.9h5.3h5.4c0.7,0,0.9,0.4,1,0.9l0.6,4.7c0.1,0.4-0.1,0.9-0.7,0.9
  H8.4z M14.3,15.6c-0.6,0-1.2-0.5-1.2-1.2c0-0.7,0.5-1.2,1.2-1.2c0.6,0,1.2,0.5,1.2,1.2C15.5,15,15,15.6,14.3,15.6z"/>
</symbol><symbol id="business" viewBox="0 0 17 21">
<style type="text/css">
  .st0{fill:#010101;}
</style>
<path class="st0" d="M16.4,15.1c-0.9-1.2-2-2-3.6-2.4l-1.5,5.2c0,0.5-0.4,0.9-0.9,0.9c-0.5,0-0.9-0.4-0.9-0.9v-4.2
  c0-0.6-0.5-1.1-1.1-1.1c-0.6,0-1.1,0.5-1.1,1.1v4.2c0,0.5-0.4,0.9-0.9,0.9c-0.5,0-0.9-0.4-0.9-0.9l-1.5-5.2
  c-1.6,0.4-2.7,1.2-3.6,2.4C0.2,15.6,0,16.6,0,17.1c0,0.1,0,0.3,0,0.4v0.9v0.9c0,1,0.8,1.7,1.7,1.7h13.5c1,0,1.7-0.8,1.7-1.7v-0.9
  v-0.9c0-0.2,0-0.3,0-0.4C17,16.6,16.8,15.6,16.4,15.1z M3.9,4.6c0,2.6,1.6,6.3,4.6,6.3c2.9,0,4.6-3.8,4.6-6.3c0-2.6-2-4.6-4.6-4.6
  C6,0,3.9,2.1,3.9,4.6z"/>
</symbol><symbol id="close" viewBox="0 0 18.6 18.6">
<path d="M11.4,9.3l6.7-6.7c0.6-0.6,0.6-1.5,0-2.1s-1.5-0.6-2.1,0L9.3,7.2L2.6,0.4C2-0.1,1-0.1,0.4,0.4C-0.1,1-0.1,2,0.4,2.6l6.7,6.7
  L0.4,16c-0.6,0.6-0.6,1.5,0,2.1s1.5,0.6,2.1,0l6.7-6.7l6.7,6.7c0.6,0.6,1.5,0.6,2.1,0s0.6-1.5,0-2.1L11.4,9.3z"/>
</symbol><symbol id="contacts-location" viewBox="0 0 28 43">
<style type="text/css">
  .st0{fill:#010101;}
</style>
<path class="st0" d="M11.7,13.9c0-1.2,1-2.2,2.3-2.2s2.3,1,2.3,2.2c0,1.2-1,2.2-2.3,2.2C12.8,16.1,11.7,15.1,11.7,13.9z M14,8.1
  c-3.2,0-5.9,2.6-5.9,5.8s2.6,5.8,5.9,5.8c3.2,0,5.9-2.6,5.9-5.8C19.9,10.7,17.2,8.1,14,8.1z M0,13.6c0,9.1,10.9,16.2,11.7,26.7v0.4
  c0,1.2,1,2.2,2.3,2.2s2.3-1,2.3-2.2v-0.4C17.2,29.8,28,22.8,28,13.6C28,6.1,21.7,0,14,0C6.3,0,0,6.1,0,13.6z M14,4.5
  c5.2,0,9.5,4.2,9.5,9.4c0,5.2-4.2,9.4-9.5,9.4s-9.5-4.2-9.5-9.4C4.5,8.7,8.8,4.5,14,4.5z"/>
</symbol><symbol id="contacts-mail" viewBox="0 0 36 26">
<style type="text/css">
  .st0{fill:#010101;}
</style>
<path class="st0" d="M0,23c0,1.6,1.3,3,3,3h30c1.7,0,3-1.3,3-3V3c0-1.6-1.3-3-3-3H3C1.3,0,0,1.3,0,3L0,23L0,23z M11,13L4.2,6.2
  c-0.6-0.6-0.6-1.5,0-2c0.6-0.6,1.5-0.6,2.1,0l11,10.9c0.4,0.4,1.2,0.4,1.6,0l11-10.9c0.6-0.6,1.5-0.6,2.1,0c0.6,0.6,0.6,1.5,0,2
  L25,13l6.9,6.8c0.6,0.6,0.6,1.5,0,2c-0.6,0.6-1.5,0.6-2.1,0l-6.9-6.8c0,0-2.1,2.2-2.5,2.5c-0.6,0.6-1.4,1-2.4,1
  c-0.9,0-1.8-0.4-2.4-1c-0.4-0.4-2.5-2.5-2.5-2.5l-6.9,6.8c-0.6,0.6-1.5,0.6-2.1,0c-0.6-0.6-0.6-1.5,0-2L11,13z"/>
</symbol><symbol id="contacts-phone" viewBox="0 0 36 36">
<style type="text/css">
  .st0{fill:#010101;}
</style>
<path class="st0" d="M18,0C11.6,0,5.2,1.1,2.8,3.4C0.9,5.3,0.2,8.7,0,10.8c0,0,0,0.2,0,0.3c0,0.8,0.7,1.5,1.5,1.5
  c0.1,0,3.7-0.3,5.9-0.5c0.1,0,0.1,0,0.2,0c0.8,0,1.5-0.7,1.5-1.5l0-3C9,6.7,9.7,6,10.7,6h14.7C26.2,6,27,6.7,27,7.7l0,3
  c0,0.8,0.7,1.5,1.5,1.5c0.1,0,0.1,0,0.2,0c2.2,0.2,5.8,0.5,5.9,0.5c0.8,0,1.5-0.7,1.5-1.5c0-0.1,0-0.3,0-0.3
  c-0.2-2.1-0.9-5.5-2.8-7.4C30.8,1.1,24.4,0,18,0z M18,19.5c-1.7,0-3,1.3-3,3s1.3,3,3,3c1.7,0,3-1.3,3-3S19.7,19.5,18,19.5z
  M15.7,12.7v-1.9c0-1-0.8-1.9-1.9-1.9S12,9.8,12,10.9v1.9L1.9,23.6c-0.7,0.7-1.1,1.6-1.1,2.7v3c0,1.7,1.3,3,3,3h0.8v1.9
  c0,1,0.8,1.9,1.9,1.9s1.9-0.8,1.9-1.9v-1.9h19.5v1.9c0,1,0.8,1.9,1.9,1.9c1,0,1.9-0.8,1.9-1.9v-1.9h0.8c1.7,0,3-1.3,3-3v-3
  c0-1.1-0.4-2-1.1-2.7L24,12.7v-1.9c0-1-0.8-1.9-1.9-1.9s-1.9,0.8-1.9,1.9v1.9H15.7z M18,16.5c3.3,0,6,2.7,6,6c0,3.3-2.7,6-6,6
  c-3.3,0-6-2.7-6-6C12,19.2,14.7,16.5,18,16.5z"/>
</symbol><symbol id="dots" viewBox="0 0 27 5">
<style type="text/css">
  .st0{fill:#606161;}
</style>
<circle class="st0" cx="2.5" cy="2.5" r="2.5"/>
<circle class="st0" cx="13.5" cy="2.5" r="2.5"/>
<circle class="st0" cx="24.5" cy="2.5" r="2.5"/>
</symbol><symbol id="dropdown-form" viewBox="0 0 17 9">
<path d="M8.5,7.2l-7.2-7C1-0.1,0.5-0.1,0.2,0.2c-0.3,0.3-0.3,0.8,0,1L8,8.8c0.3,0.3,0.8,0.3,1.1,0l7.7-7.5C16.9,1.1,17,0.9,17,0.7
  s-0.1-0.4-0.2-0.5c-0.3-0.3-0.8-0.3-1.1,0L8.5,7.2z"/>
</symbol><symbol id="dropdown" viewBox="0 0 10 5">
<polygon points="5,5 0,0 10,0 "/>
</symbol><symbol id="facebook" viewBox="0 0 11 21">
<g>
  <path d="M7.8,21H2.2v-9.8H0V6.4h2.1C2,4.2,2.4,2.6,3.4,1.5C4.2,0.6,5.5,0.1,7.1,0L11,0v4.7H7.9C7.8,4.9,7.7,5.5,7.7,6.4H11v4.8H7.8
    V21z M3.4,19.9h3.1v-9.8h3.2V7.5H6.5l0-0.6c0-1.5,0-2.9,0.8-3.4l0.2-0.1h2.3V1.1H7.1C5.9,1.2,4.9,1.6,4.3,2.3
    C3.5,3.2,3.2,4.8,3.4,6.9l0.1,0.6H1.2v2.6h2.2V19.9z"/>
</g>
</symbol><symbol id="filter-close" viewBox="0 0 12 12">
<style type="text/css">
  .st0{fill:#606161;}
</style>
<path class="st0" d="M6.9,6l4.9-4.9c0.2-0.2,0.2-0.6,0-0.9s-0.6-0.2-0.9,0L6,5.1L1.1,0.2c-0.2-0.2-0.6-0.2-0.9,0s-0.2,0.6,0,0.9
  L5.1,6l-4.9,4.9c-0.2,0.2-0.2,0.6,0,0.9v0c0.2,0.2,0.6,0.2,0.9,0L6,6.9l4.9,4.9c0.2,0.2,0.6,0.2,0.9,0v0c0.2-0.2,0.2-0.6,0-0.9
  L6.9,6z"/>
</symbol><symbol id="filter" viewBox="0 0 15 10">
<rect x="4" width="2" height="2"/>
<rect width="3" height="2"/>
<rect x="7" width="8" height="2"/>
<rect x="4" y="8" width="2" height="2"/>
<rect y="8" width="3" height="2"/>
<rect x="7" y="8" width="8" height="2"/>
<rect x="9" y="4" width="2" height="2"/>
<rect x="12" y="4" width="3" height="2"/>
<rect y="4" width="8" height="2"/>
</symbol><symbol id="flag-australia"><g fill-rule="nonzero" fill="none"><path d="M64.31.33H6A6.64 6.64 0 0 0 .25 5.91v35.72a6.64 6.64 0 0 0 6.56 5.64H63.5a6.64 6.64 0 0 0 6.64-6.64V6.92A6.64 6.64 0 0 0 64.31.33z" fill="#4658A9"/><path d="M25.11.29H6.71A6.64 6.64 0 0 0 .14 6.93v17.32h25L25.11.29z" fill="#4658A9"/><path d="M10.68 17.69v6.56h3.9v-6.71l6.71 6.71h3.82v-3l-7-7h7v-4h-7l7-7v-3h-3.83l-6.7 6.7V.25h-3.9v6.56L4.52.65A6.66 6.66 0 0 0 .89 3.82l6.41 6.41H.14v4H7.3L.14 21.39v2.83h4l6.54-6.53z" fill="#FFF"/><path d="M11.68 14.95v9.31h1.9V14.8L23 24.25h2.08V23l-9.78-9.78h9.78v-1.93H15.3l9.78-9.78V.29H23l-9.45 9.45V.29h-1.9v9.3L3.32 1.25A6.67 6.67 0 0 0 1.56 2.8l8.49 8.49H.12v1.95h9.93L.12 23.17v1.09h2.23l9.33-9.31z" fill="#EC5463"/><path d="M41.83 13.17c-.32.23-.51.1-.41-.29l.35-1.43a1.3 1.3 0 0 0-.37-1.17l-1-.91c-.3-.26-.22-.48.17-.49h1.46a1.05 1.05 0 0 0 .91-.71l.46-1.57c.11-.38.31-.39.44 0l.55 1.54a1.1 1.1 0 0 0 1 .68h1.49c.39 0 .47.22.17.48l-1.13 1a1.24 1.24 0 0 0-.34 1.16l.36 1.26c.11.38-.07.52-.41.32l-1.21-.75a1.16 1.16 0 0 0-1.19 0l-1.3.88zM53.83 17.17c-.32.23-.51.1-.41-.29l.35-1.43a1.3 1.3 0 0 0-.37-1.17l-1-.91c-.3-.26-.22-.48.17-.49h1.46a1.05 1.05 0 0 0 .91-.71l.46-1.57c.11-.38.31-.39.44 0l.55 1.54a1.1 1.1 0 0 0 1 .68h1.49c.39 0 .47.22.17.48l-1.13 1a1.24 1.24 0 0 0-.34 1.16l.36 1.26c.11.38-.07.52-.41.32l-1.21-.75a1.16 1.16 0 0 0-1.19 0l-1.3.88zM35.83 24.17c-.32.23-.51.1-.41-.29l.35-1.43a1.3 1.3 0 0 0-.37-1.17l-1-.91c-.3-.26-.22-.48.17-.49h1.46a1.05 1.05 0 0 0 .91-.71l.46-1.57c.11-.38.31-.39.44 0l.55 1.54a1.1 1.1 0 0 0 1 .68h1.49c.39 0 .47.22.17.48l-1.13 1a1.24 1.24 0 0 0-.34 1.16l.36 1.26c.11.38-.07.52-.41.32l-1.21-.75a1.16 1.16 0 0 0-1.19 0l-1.3.88zM11.29 40.14c-.41.29-.65.13-.53-.37l.44-1.84a1.67 1.67 0 0 0-.48-1.5l-1.35-1.17c-.38-.33-.28-.61.22-.63l1.89-.05a1.35 1.35 0 0 0 1.18-.91l.59-2c.14-.49.4-.5.57 0l.71 2a1.42 1.42 0 0 0 1.23.88h1.92c.5 0 .61.28.23.62l-1.46 1.28a1.59 1.59 0 0 0-.44 1.5l.47 1.62c.14.49-.1.67-.53.4l-1.56-1a1.51 1.51 0 0 0-1.53 0l-1.57 1.17zM50.34 29.2c-.23.16-.36.07-.3-.2l.25-1a.93.93 0 0 0-.27-.83l-.75-.65c-.21-.18-.16-.34.12-.35h1a.75.75 0 0 0 .65-.51l.33-1.12c.08-.27.22-.28.32 0l.4 1.1a.79.79 0 0 0 .68.49h1.07c.28 0 .34.16.13.34l-.81.71A.88.88 0 0 0 53 28l.26.9c.08.27-.05.37-.29.23l-.87-.54a.84.84 0 0 0-.85 0l-.91.61z" fill="#FFF"/></g></symbol><symbol id="flag-belgium"><g fill-rule="nonzero" fill="none"><path d="M7.27.85A6.36 6.36 0 0 0 .91 7.21v34.27a6.36 6.36 0 0 0 6.36 6.36h17v-47l-17 .01z" fill="#434A54"/><path d="M24.25.85v47H47.6v-47H24.25z" fill="#FFCE54"/><path d="M64.54.85H47.59v47h16.95a6.36 6.36 0 0 0 6.36-6.36V7.21A6.36 6.36 0 0 0 64.54.85z" fill="#ED5565"/></g></symbol><symbol id="flag-bosnia"><g fill-rule="nonzero" fill="none"><rect fill="#4758A9" x=".9" y=".13" width="70" height="47" rx="6.36"/><path fill="#F6D660" d="M13.9.13h37v47z"/><path d="M8.19 4.88c-.27-.08-.28-.24 0-.36l1-.44a.93.93 0 0 0 .49-.73v-1c0-.28.17-.33.35-.12l.67.8c.203.22.517.3.8.2l1.08-.43c.26-.11.36 0 .2.24l-.62 1a.79.79 0 0 0 0 .84l.65.85c.17.22.08.36-.19.31l-1.06-.2a.88.88 0 0 0-.8.32l-.55.76c-.17.23-.33.19-.36-.09l-.11-1a.84.84 0 0 0-.55-.65l-1-.3zM12.51 10.38c-.27-.08-.28-.24 0-.36l1-.44a.92.92 0 0 0 .49-.73v-1c0-.28.17-.33.35-.12l.67.8c.203.22.517.3.8.2l1.08-.43c.26-.1.35 0 .2.24l-.62 1a.79.79 0 0 0 0 .84l.65.85c.17.22.08.36-.19.31l-1.06-.2a.88.88 0 0 0-.8.32l-.55.76c-.17.23-.33.19-.36-.09l-.12-1a.84.84 0 0 0-.55-.65l-.99-.3zM16.84 15.88c-.27-.08-.28-.24 0-.36l1-.44a.92.92 0 0 0 .49-.73v-1c0-.28.17-.33.35-.12l.67.81c.203.22.517.3.8.2l1.08-.43c.26-.11.35 0 .2.24l-.62 1a.79.79 0 0 0 0 .84l.65.85c.17.22.08.36-.19.31l-1.06-.2a.88.88 0 0 0-.8.32l-.55.76c-.16.23-.33.19-.36-.09l-.11-1a.84.84 0 0 0-.55-.65l-1-.31zM21.17 21.38c-.27-.08-.28-.24 0-.36l1-.44a.92.92 0 0 0 .49-.73v-1c0-.28.17-.33.35-.12l.67.81c.203.22.517.3.8.2l1.08-.43c.26-.1.35 0 .2.24l-.62 1a.79.79 0 0 0 0 .84l.65.85c.17.22.08.36-.19.31l-1.06-.2a.88.88 0 0 0-.8.32l-.55.76c-.17.23-.33.19-.36-.09l-.12-1a.83.83 0 0 0-.55-.65l-.99-.31zM25.5 26.88c-.27-.08-.28-.24 0-.36l1-.44a.93.93 0 0 0 .49-.73v-1c0-.28.17-.33.35-.12l.67.81c.203.22.517.3.8.2l1.08-.43c.26-.11.35 0 .2.24l-.62 1a.79.79 0 0 0 0 .84l.65.85c.17.22.08.36-.19.31l-1.06-.2a.88.88 0 0 0-.8.32l-.55.76c-.17.23-.33.19-.36-.09l-.12-1a.83.83 0 0 0-.55-.65l-.99-.31zM29.83 32.38c-.27-.08-.28-.24 0-.36l1-.44a.93.93 0 0 0 .49-.73v-1c0-.28.17-.33.35-.12l.67.81c.203.22.517.3.8.2l1.08-.43c.26-.11.35 0 .2.24l-.62 1a.79.79 0 0 0 0 .84l.65.85c.17.22.08.36-.19.31l-1.06-.2a.88.88 0 0 0-.8.32l-.55.76c-.17.23-.33.19-.36-.09l-.12-1a.84.84 0 0 0-.55-.65l-.99-.31zM34.16 37.89c-.27-.08-.28-.24 0-.36l1-.44a.93.93 0 0 0 .49-.73v-1c0-.28.17-.34.35-.12l.67.81c.203.22.517.3.8.2l1.08-.43c.26-.11.35 0 .2.24l-.62 1a.79.79 0 0 0 0 .84l.65.85c.17.22.08.36-.19.31l-1.06-.2a.88.88 0 0 0-.8.32l-.55.76c-.17.23-.33.19-.36-.09l-.12-1a.84.84 0 0 0-.55-.65l-.99-.31zM37.87 42.6c-.27-.08-.28-.24 0-.36l1-.44a.93.93 0 0 0 .49-.73v-1c0-.28.17-.33.35-.12l.67.81c.203.22.517.3.8.2l1.08-.43c.26-.11.35 0 .21.24l-.62 1a.79.79 0 0 0 0 .84l.65.85c.17.22.09.36-.19.31l-1.06-.2a.88.88 0 0 0-.8.32l-.55.76c-.16.23-.33.19-.36-.09l-.12-1a.84.84 0 0 0-.55-.65l-1-.31z" fill="#FFF"/></g></symbol><symbol id="flag-czech"><g fill-rule="nonzero" fill="none"><path d="M63.92.55H6.65A6.36 6.36 0 0 0 .29 6.91v17.64h70V6.91A6.36 6.36 0 0 0 63.92.55z" fill="#FFF"/><path d="M.28 41.18a6.36 6.36 0 0 0 6.36 6.36h57.28a6.36 6.36 0 0 0 6.36-6.36V24.55h-70v16.63z" fill="#ED5565"/><path d="M2.19 2.38a6.34 6.34 0 0 0-1.9 4.54v34.27a6.34 6.34 0 0 0 1.95 4.57l23.05-21.21L2.19 2.38z" fill="#4758A9"/></g></symbol><symbol id="flag-dominica"><g fill-rule="nonzero" fill="none"><rect fill="#039188" x=".08" y=".55" width="70" height="47" rx="6.36"/><path fill="#FFF" d="M.08 26.14h70.13v4.18H.08z"/><path fill="#434A54" d="M.08 21.96h70.13v4.18H.08z"/><path fill="#F6BB42" d="M.08 17.79h70.13v4.18H.08z"/><path fill="#FFF" d="M37.42.55h4.18v47h-4.18z"/><path fill="#434A54" d="M33.24.55h4.18v47h-4.18z"/><path fill="#F6BB42" d="M29.07.55h4.18v47h-4.18z"/><circle fill="#ED5565" cx="35.15" cy="24.05" r="12.92"/><path d="M44.8 20.51h.78a.13.13 0 0 1 .07.23l-.6.44a.13.13 0 0 0 0 .14l.23.76a.13.13 0 0 1-.2.14l-.65-.45a.13.13 0 0 0-.15 0l-.69.52a.13.13 0 0 1-.2-.14l.26-.8a.13.13 0 0 0 0-.14l-.67-.49a.13.13 0 0 1 .08-.23h.84a.13.13 0 0 0 .12-.09l.25-.72a.13.13 0 0 1 .24 0l.25.72a.13.13 0 0 0 .04.11zM25.49 27.59h-.78a.13.13 0 0 1-.07-.23l.6-.44a.13.13 0 0 0 0-.14l-.23-.76a.13.13 0 0 1 .2-.14l.65.45a.13.13 0 0 0 .15 0l.69-.52a.13.13 0 0 1 .2.14l-.26.8a.13.13 0 0 0 0 .14l.67.49a.13.13 0 0 1-.08.23h-.84a.13.13 0 0 0-.12.09l-.25.72a.13.13 0 0 1-.24 0l-.25-.72a.13.13 0 0 0-.04-.11zM45 26.86l.62.47a.13.13 0 0 1-.08.23h-.75a.13.13 0 0 0-.12.09l-.26.75a.13.13 0 0 1-.24 0l-.26-.74a.13.13 0 0 0-.12-.09h-.86a.13.13 0 0 1-.08-.23l.69-.49a.13.13 0 0 0 0-.14l-.25-.79a.13.13 0 0 1 .2-.14l.68.5a.13.13 0 0 0 .15 0l.63-.44a.13.13 0 0 1 .2.14l-.22.73a.13.13 0 0 0 .07.15zM25.25 21.24l-.62-.47a.13.13 0 0 1 .08-.23h.75a.13.13 0 0 0 .12-.09l.26-.75a.13.13 0 0 1 .24 0l.26.74a.13.13 0 0 0 .12.09h.86a.13.13 0 0 1 .08.23l-.69.49a.13.13 0 0 0 0 .14l.25.79a.13.13 0 0 1-.2.14l-.68-.5a.13.13 0 0 0-.15 0l-.63.44a.13.13 0 0 1-.2-.14l.22-.73a.13.13 0 0 0-.07-.15zM41.5 32.14l.22.75a.13.13 0 0 1-.2.14l-.6-.44a.13.13 0 0 0-.15 0l-.65.46a.13.13 0 0 1-.2-.14l.23-.76a.13.13 0 0 0-.05-.14l-.71-.49a.13.13 0 0 1 .07-.24h.84a.13.13 0 0 0 .12-.09l.26-.79a.13.13 0 0 1 .25 0l.26.8a.13.13 0 0 0 .12.09h.76a.13.13 0 0 1 .07.23l-.61.46a.13.13 0 0 0-.03.16zM28.79 16l-.22-.75a.13.13 0 0 1 .2-.14l.6.44a.13.13 0 0 0 .15 0l.65-.46a.13.13 0 0 1 .2.14l-.23.76a.13.13 0 0 0 .05.14l.71.49a.13.13 0 0 1-.07.24H30a.13.13 0 0 0-.12.09l-.26.79a.13.13 0 0 1-.25 0l-.26-.8a.13.13 0 0 0-.12-.09h-.76a.13.13 0 0 1-.07-.23l.61-.46a.13.13 0 0 0 .02-.16zM40.88 15.51l.64-.44a.13.13 0 0 1 .2.15l-.23.71a.13.13 0 0 0 0 .14l.64.48a.13.13 0 0 1-.07.23h-.79a.13.13 0 0 0-.12.09l-.25.83a.13.13 0 0 1-.25 0l-.26-.8a.13.13 0 0 0-.12-.09h-.83a.13.13 0 0 1-.07-.23l.68-.49a.13.13 0 0 0 0-.14l-.22-.73a.13.13 0 0 1 .2-.14l.62.44a.13.13 0 0 0 .23-.01zM29.41 32.59l-.64.44a.13.13 0 0 1-.2-.15l.23-.71a.13.13 0 0 0 0-.14l-.64-.48a.13.13 0 0 1 .07-.23h.79a.13.13 0 0 0 .12-.09l.25-.83a.13.13 0 0 1 .25 0l.26.8a.13.13 0 0 0 .12.09h.83a.13.13 0 0 1 .07.23l-.68.49a.13.13 0 0 0 0 .14l.22.73a.13.13 0 0 1-.2.14l-.62-.44a.13.13 0 0 0-.23.01zM34.76 13.77L35 13a.13.13 0 0 1 .24 0l.23.71a.13.13 0 0 0 .12.09h.8a.13.13 0 0 1 .08.23l-.63.48a.13.13 0 0 0 0 .15l.28.82a.13.13 0 0 1-.2.15l-.68-.5a.13.13 0 0 0-.15 0l-.68.48a.13.13 0 0 1-.2-.15l.26-.8a.13.13 0 0 0 0-.14l-.61-.46a.13.13 0 0 1 .08-.23h.76a.13.13 0 0 0 .06-.06zM35.53 34.33l-.26.73a.13.13 0 0 1-.24 0l-.23-.71a.13.13 0 0 0-.12-.09h-.8a.13.13 0 0 1-.08-.23l.63-.48a.13.13 0 0 0 0-.15l-.28-.82a.13.13 0 0 1 .2-.15l.68.5a.13.13 0 0 0 .15 0l.68-.48a.13.13 0 0 1 .2.15l-.26.8a.13.13 0 0 0 0 .14l.61.46a.13.13 0 0 1-.08.23h-.76a.13.13 0 0 0-.04.1zM38.93 29.33a2.86 2.86 0 0 0-.05-1.11 2.62 2.62 0 0 0-.09-1 6.11 6.11 0 0 0-.64-3.57 9.9 9.9 0 0 0-1.1-2 .07.07 0 0 1 .08-.1 1 1 0 0 0 1.14-.25.07.07 0 0 0 0-.11 1.47 1.47 0 0 1-.41-.18.07.07 0 0 1 0-.12 1.12 1.12 0 0 0 .29-.22.07.07 0 0 0 0-.11 1.46 1.46 0 0 1-.4-.18.07.07 0 0 1 0-.12 1.16 1.16 0 0 0 .24-.2.07.07 0 0 0 0-.11 1.94 1.94 0 0 1-.59-.3.07.07 0 0 1 0-.11c.073-.05.14-.106.2-.17a.07.07 0 0 0 0-.11 1.58 1.58 0 0 1-.45-.21.07.07 0 0 1 0-.13h.21a.07.07 0 0 0 0-.13c-.62-.35-1.37-1.22-1.84-1.45a1.9 1.9 0 0 0-1.87.1 1 1 0 0 0-.36.64.07.07 0 0 1-.05.05h-.16c-.42.09-.68.46-.36 1.3a.07.07 0 0 0 .13 0 1.53 1.53 0 0 1 .09-.19.07.07 0 0 1 .09 0 .6.6 0 0 0 .51 0 .81.81 0 0 0 .2-.1.07.07 0 0 1 .07 0 .07.07 0 0 1 0 .1.38.38 0 0 0-.05.18.4.4 0 0 0-.18.32.4.4 0 0 0-.14.3 6.32 6.32 0 0 0-.64 3.41 5.19 5.19 0 0 0 1.42 3.27c.022.09.052.176.09.26-.02.15-.02.3 0 .45 0 .45.25.78.45.77.018.209.083.41.19.59a.07.07 0 0 1 0 .09 1.21 1.21 0 0 0-.37.33.07.07 0 0 1-.05 0h-1.27c-.18 0-.07-.23-.21-.47a.77.77 0 0 0-.95-.17c-.32.18-.07.51-.62.56a.07.07 0 0 0-.06.09c.12.284.289.545.5.77.86.095 1.726.125 2.59.09a.07.07 0 0 1 .05 0 1 1 0 0 0 1 .43h.06a.48.48 0 0 0 .41 0 .07.07 0 0 1 .06 0 .53.53 0 0 0 .37 0h.05a.67.67 0 0 0 .3 0 .07.07 0 0 1 .07 0c.12.24.25.38.37.36.13.39.26.62.39.6.13-.02.22-.23.29-.61h.05c.2 0 .36-.37.46-.94a.07.07 0 0 1 .06-.06h.11a.56.56 0 0 0 0-.73v-.41a.07.07 0 0 1 .13 0l.14.32a.147.147 0 1 0 .05.29z" fill="#039188"/></g></symbol><symbol id="flag-france"><g fill-rule="nonzero" fill="none"><path d="M6.51.11A6.36 6.36 0 0 0 .15 6.47v34.27a6.36 6.36 0 0 0 6.36 6.36h17V.1l-17 .01z" fill="#4758A9"/><path d="M23.49.11v47h23.35v-47H23.49z" fill="#FFF"/><path d="M63.78.11H46.83v47h16.95a6.36 6.36 0 0 0 6.36-6.36V6.48A6.36 6.36 0 0 0 63.78.11z" fill="#ED5565"/></g></symbol><symbol id="flag-germany" viewBox="0 0 512 512"><path d="M473.655 88.276H38.345C17.167 88.276 0 105.443 0 126.621v73.471h512v-73.471c0-21.178-17.167-38.345-38.345-38.345z" fill="#464655"/><path d="M0 385.379c0 21.177 17.167 38.345 38.345 38.345h435.31c21.177 0 38.345-17.167 38.345-38.345v-73.471H0v73.471z" fill="#f6bb42"/><path fill="#ff4b55" d="M0 200.09h512V311.9H0z"/></symbol><symbol id="flag-seychelles"><g fill-rule="nonzero" fill="none"><path d="M3.88 47l.51-.12 66.47-30.61V7.33A6.36 6.36 0 0 0 64.5.97H46.6L2.28 45.59A6.39 6.39 0 0 0 3.88 47z" fill="#ED5565"/><path d="M7.24 1A6.36 6.36 0 0 0 .88 7.36v34.27c0 .915.197 1.819.58 2.65L24.15 1H7.24z" fill="#4758A9"/><path d="M25.1 1h-.95L1.45 44.28c.14.306.304.6.49.88.11.16.22.31.34.46L46.6 1H25.1z" fill="#FFCE54"/><path fill="#FFF" d="M70.87 30.89V16.26L4.4 46.87z"/><path d="M4.4 46.87l-.41.19a6.32 6.32 0 0 0 3.25.9h57.27a6.36 6.36 0 0 0 6.36-6.36V30.9L4.4 46.87z" fill="#57A863"/></g></symbol><symbol id="flag-sri-lanka"><g fill-rule="nonzero" fill="none"><rect fill="#FFCE54" x=".25" y=".52" width="70" height="47" rx="6.36"/><path fill="#57A863" d="M5.25 42.52v-37h8.11v37z"/><path fill="#FF8416" d="M13.36 42.52v-37h8.11v37z"/><path fill="#ED5565" d="M26.47 42.52v-37h38.79v37z"/><path d="M59.54 16.69a.72.72 0 0 0-.56-.39.7.7 0 0 0-.61.26.59.59 0 0 0-.15.55 4.29 4.29 0 0 1-1.29-.88 11.63 11.63 0 0 0-3.68-2.14 8.18 8.18 0 0 0-2.81-.15 4.6 4.6 0 0 0-2.13 1 2.06 2.06 0 0 0 0 3l.15.18-.09.14a1.22 1.22 0 0 0 .05 1.37c.26.35.33.35.39.35s.22-.28.23-.37a.46.46 0 0 1 .27-.45c.14-.05.25 0 1.15.33a8.4 8.4 0 0 0 4.39.08 4.71 4.71 0 0 1 2.17 0 1 1 0 0 1 .62.68 1 1 0 0 1-.28.92c-.22.24-.4.35-1.24.58a6 6 0 0 1-2.15.16 9.58 9.58 0 0 0-2.18.12 9.48 9.48 0 0 1-2.41.08h-1.71l-.34-.46a1.18 1.18 0 0 1-.18-.51V21l.2.12a.2.2 0 0 0 .23 0c.11-.1.09-.26-.12-.76a1.26 1.26 0 0 1-.07-.39v-.05a.16.16 0 0 0 .16 0c.06-.05.08-.07.12-1.33.04-1.26 0-1.6-.34-2l-.07-.09.15-.16a2 2 0 0 0 .57-1.08l.13-.8-.64.6a.54.54 0 0 1-.48.21.43.43 0 0 1-.41-.18 2.4 2.4 0 0 0-1-.59.33.33 0 0 0-.3 0 .24.24 0 0 0-.09.2 1.44 1.44 0 0 1-.14.34l-.06.1-.18-.18a1.79 1.79 0 0 0-.71-.45c-.27-.07-.45-.12-.58 0-.13.12-.12.25-.12.42 0 .17-.06.31-.06.31s-.08 0-.29-.17a1.42 1.42 0 0 0-1.28-.3l-.67.07.16.41c0 .1 0 .12-.07.27a1 1 0 0 1-.88.38 1.91 1.91 0 0 0-.68.12 2.31 2.31 0 0 1-.58.13l-.47.07a.74.74 0 0 0-.16-.6.83.83 0 0 0-.64-.27.79.79 0 0 0-.67.32 1.15 1.15 0 0 0-.08 1c0 .12.09.31.12.42a3 3 0 0 0 .62.82c.207.201.4.415.58.64.104.146.241.266.4.35l.54.3-.06-.47c.072.063.149.12.23.17.13.08.25.15.36.09a.23.23 0 0 0 .1-.21.65.65 0 0 1 0-.12c.17.27.36.528.57.77l.14.17a7.35 7.35 0 0 1-2.49-.7c-.67-.3-.88-.36-1-.22a.34.34 0 0 0-.1.31 1 1 0 0 0 .4.54.66.66 0 0 0-.23.38l-.2.63-.19.59.65-.06a4.77 4.77 0 0 0 .59-.09l-.32.59.6-.12a2.48 2.48 0 0 0 .49-.16h.07l.09.13c.05.09.22.35.44.3.22-.05.2-.13.23-.3l.05.11c.18.39.36.57.55.55.19-.02.19 0 .22-.26a.51.51 0 0 1 .17-.2.25.25 0 0 1 .17-.07s.07.06.1.14c.03.08 0 .31-.76.78a5 5 0 0 0-2.53 3.61 3.39 3.39 0 0 0 0 1.23c-.21-.23-.5-.52-.92-.93l-1.16-1.13a1 1 0 0 0 .52-.89.81.81 0 0 0-.61-.72.93.93 0 0 0-.38 0c0-.34.06-1 .09-2.55.08-4.13.38-7.27.78-8 .1-.18.17-.32.05-.43-.12-.11-.25 0-.58.19a4.26 4.26 0 0 0-1.38 1.6c-.7 1.32-1 3.12-1 6.86a23.17 23.17 0 0 0 .05 2.35.92.92 0 0 0-.41 0 .8.8 0 0 0-.64.69 1 1 0 0 0 .64 1c.147.068.301.118.46.15a.32.32 0 0 0-.08.29.31.31 0 0 0 0 .11.34.34 0 0 0-.17.1c-.07.08-.13.23 0 .49a.5.5 0 0 0 .22.22.36.36 0 0 0-.1.36c.032.1.1.186.19.24a.4.4 0 0 0 0 .24.43.43 0 0 0 .27.42.5.5 0 0 0 0 .23l-.13-.06a.45.45 0 0 0-.46 0 .42.42 0 0 0-.07.65.81.81 0 0 0 .62.15.7.7 0 0 1-.14.21l-.28.31.23.32a.82.82 0 0 1 0 .91l-.05.06a.49.49 0 0 0-.47-.22.4.4 0 0 0-.3.31c-.07.25 0 .39.25.58a1 1 0 0 0 .55.25.61.61 0 0 1-.12.12l-.52.4.72.11h.21c.06.22.25.65.45.65s.29-.18.33-.23a.81.81 0 0 0 .15-.42h.21l.73-.1-.54-.43-.11-.1a1.13 1.13 0 0 0 .82-.55.46.46 0 0 0-.07-.43.47.47 0 0 0-.45-.15.36.36 0 0 0-.27.24l-.06-.06a.75.75 0 0 1 0-1c.21-.24.17-.35-.05-.56a.8.8 0 0 1-.19-.31h.11a.53.53 0 0 0 .54 0 .36.36 0 0 0 .14-.43.51.51 0 0 0-.38-.27.48.48 0 0 0 .27-.14.85.85 0 0 0 .16.15c.16.12.16.12.16.78s0 .84.19 1c.19.16.18.17.3.12a.22.22 0 0 0 .12-.23.33.33 0 0 1 .2-.12c.23.175.447.365.65.57.265.28.572.516.91.7h.25a1.36 1.36 0 0 0 .41-.12 2.79 2.79 0 0 0 1-.87 7.7 7.7 0 0 0 .85.52c.202.14.436.226.68.25.07.24.16.51.26.81.53 1.57.35 2-.21 2.35-.19.11-.29.13-.91.13-.62 0-.81 0-1.07.21a1.91 1.91 0 0 0-.54 1.1.25.25 0 0 0 .12.22c.13.07.3 0 .59-.13l.13-.08a.57.57 0 0 0 .38.21 1 1 0 0 0 .69-.18l.1-.07.07.07a.85.85 0 0 0 .56.2 1 1 0 0 0 .58-.19l.1-.07c.175.111.374.18.58.2.42.05.48 0 .73-.34a.85.85 0 0 0 .18-.74c0-.16-.06-.42-.06-.58a.94.94 0 0 1 0-.16c.096-.05.196-.09.3-.12a5.89 5.89 0 0 0 .63-.25c.16-.09.73-.68.73-.9 0-.22-.14-.22-.56-.26-.42-.04-.56-.13-.63-.28-.07-.15 0-.5.29-.93.17-.26.32-.51.46-.76l.28-.06c.15 0 .95-.38 1.61-.68a8 8 0 0 1 3.57-1v.28a3.21 3.21 0 0 0 .93 1.94 2.63 2.63 0 0 1 .79 2.23v1l-.16.15c-.15.14-.17.16-.81.2-.64.04-.78.06-1 .26a1.14 1.14 0 0 0-.43.69.35.35 0 0 0 0 .32.28.28 0 0 0 .23.09 1.28 1.28 0 0 0 .52-.21l.17-.11.1.09a.68.68 0 0 0 1 0 .63.63 0 0 0 .54.25c.29 0 .44 0 .59-.23l.14.09c.179.127.39.2.61.21a.56.56 0 0 0 .34-.11l.05.05c.15.11.36 0 .63-.16l.14-.09a.57.57 0 0 0 .4.24.85.85 0 0 0 .64-.21l.11-.09.12.09a.87.87 0 0 0 .76.18.64.64 0 0 0 .37-.27c.288.21.647.3 1 .25a.3.3 0 0 0 .23-.17.66.66 0 0 0-.13-.52 2 2 0 0 1-.47-1c0-.34.07-.5.53-.84.46-.34.71-.74.62-1a.37.37 0 0 0-.4-.25c-.2 0-.43-.21-.58-.54-.34-.77-.27-1.63.26-3.1a6.62 6.62 0 0 0 .62-2.89 3 3 0 0 0-.22-1.49 5.3 5.3 0 0 0-.54-1l-.21-.29.28-.23a2.1 2.1 0 0 0 .82-1.92 2.15 2.15 0 0 0-1.35-1.65 2.61 2.61 0 0 0-1.41-.22 11.61 11.61 0 0 0-1.62.14 10.87 10.87 0 0 1-1.57.13c-.76 0-.86 0-1.11-.15-.25-.15-.28-.17-.33-.5a.39.39 0 0 0-.24-.31c-.21-.07-.61.3-.78.54a1.55 1.55 0 0 1-.15-.31c-.07-.2-.07-.43.37-.65l.61-.29-.46-.28a1.13 1.13 0 0 0-.86-.11 1.16 1.16 0 0 0-.73.5l-.05.08-.16-.15a.74.74 0 0 1-.24-.7.76.76 0 0 1 .53-.53.63.63 0 0 1 .47 0 .18.18 0 0 1 .09.11c.08.29.28.26.32.25.27-.05.43-.53.38-.89v-.12c.392.08.745.292 1 .6a1.13 1.13 0 0 1 0 1.12l-.39.64.62-.12a1.64 1.64 0 0 0 1-.65 1.53 1.53 0 0 0 .07-1.3c.253.108.459.303.58.55.117.16.14.37.06.55a1.79 1.79 0 0 1-.22.49c-.1.13-.18.24-.12.36a.23.23 0 0 0 .22.11 1.6 1.6 0 0 0 .88-.4c.11-.132.197-.28.26-.44.234.335.56.596.94.75.45.19.62.21.7.07.08-.14-.08-.28-.14-.33a2.09 2.09 0 0 1-.26-.61c.22.16.58.45 1 .84a2.4 2.4 0 0 0 1.75.81 1.14 1.14 0 0 0 1-.52 1 1 0 0 0 .31-1.09zM34.4 28a.66.66 0 0 0 .26-.07.2.2 0 0 0 .08.06 1 1 0 0 0-.26 0l-.08.01zm20.85 6a2.2 2.2 0 0 0-1.2.62 2.55 2.55 0 0 0-.12-.53c-.14-.43-.1-.66.45-1.31.08-.09.47-.56.47-.77a.3.3 0 0 0-.08-.23c-.09-.09-.23-.09-.45-.09s-.3 0-.42-.14-.25-.37.05-.75l.2-.25.19.12c1.55 1 1.55 1 1.62 2.08.07 1.08.04 1.11-.71 1.25z" fill="#FFCE54"/></g></symbol><symbol id="flag-thailand"><g fill-rule="nonzero" fill="none"><rect fill="#ED5565" x=".25" y=".07" width="70" height="47" rx="6.36"/><path fill="#FFF" d="M.25 9.57h70v28h-70z"/><path fill="#4758A9" d="M.25 13.57h70v20h-70z"/></g></symbol><symbol id="flag-united-kingdom"><g fill-rule="nonzero" fill="none"><path d="M30.57.68h-3.13V15l-25-12.5a6.62 6.62 0 0 0-2 4.24l19.2 9.6h-7L.41 10.23V12l8.73 4.36H.41v3.13H30.6L30.57.68zM68.23 45.89a6.62 6.62 0 0 0 2.12-4.19L50.93 32h7l12.46 6.23v-1.75l-9-4.48h9v-3.13H40v18.79h3.13V33.34l25.1 12.55zM43.1.68H40v18.79h30.42v-3.13h-9l9-4.48V7.29v-.67l-19.43 9.71h-7L69.36 3.64a6.68 6.68 0 0 0-1-1.23L43.1 15V.68zM.39 28.86V32h8.73L.39 36.36V41.59l19.2-9.6h7L1.41 44.58a6.66 6.66 0 0 0 1 1.24l25-12.49v14.32h3.13V28.86H.39z" fill="#FFF"/><path fill="#EC5565" d="M70.39 28.86v-9.39H39.97V.68h-9.4v18.79H.39v9.39h30.18v18.79h9.4V28.86z"/><path d="M19.61 16.34L.41 6.74V10.22l12.23 6.11 6.97.01zM50.93 16.34l19.43-9.71a6.6 6.6 0 0 0-1.06-3L43.93 16.32l7 .02zM50.93 32l19.42 9.71a6.72 6.72 0 0 0 0-.7v-2.78L57.93 32h-7zM19.61 32L.41 41.6a6.6 6.6 0 0 0 1 3L26.62 32h-7.01z" fill="#EC5565"/><path d="M43.1 15L68.26 2.42A6.61 6.61 0 0 0 64.42.68H43.1V15zM70.39 36.47v-4.48h-8.96zM70.39 16.34v-4.48l-8.96 4.48zM2.46 45.82a6.61 6.61 0 0 0 4.57 1.83h20.41V33.33L2.46 45.82zM43.1 33.33v14.32h20.65a6.61 6.61 0 0 0 4.48-1.75L43.1 33.33zM27.44.68H6.36A6.61 6.61 0 0 0 2.44 2.5l25 12.5V.68zM.39 31.99v4.36l8.72-4.36zM.39 11.97v4.37h8.72z" fill="#4658A9"/></g></symbol><symbol id="flag-usa"><g fill-rule="nonzero" fill="none"><path d="M7 47.61h57.77A6.64 6.64 0 0 0 70.16 44H1.6A6.64 6.64 0 0 0 7 47.61z" fill="#ED5565"/><path d="M.91 40.38v1.34a6.59 6.59 0 0 0 .68 2.27h68.55a6.59 6.59 0 0 0 .68-2.27v-1.34H.91z" fill="#FFF"/><path fill="#ED5565" d="M.91 36.77h69.92v3.61H.91z"/><path fill="#FFF" d="M.91 33.16h69.92v3.61H.91z"/><path fill="#ED5565" d="M.91 29.55h69.92v3.61H.91z"/><path fill="#FFF" d="M.91 25.94h69.92v3.61H.91z"/><path fill="#ED5565" d="M.91 22.33h69.92v3.61H.91z"/><path fill="#FFF" d="M.91 18.72h69.92v3.61H.91z"/><path fill="#ED5565" d="M.91 15.11h69.92v3.61H.91z"/><path fill="#FFF" d="M.91 11.49h69.92v3.61H.91z"/><path fill="#ED5565" d="M.91 7.88h69.92v3.61H.91z"/><path d="M70.83 7.88V6.54a6.59 6.59 0 0 0-.68-2.28H1.6a6.59 6.59 0 0 0-.68 2.28v1.34h69.91z" fill="#FFF"/><path d="M64.76.66H7a6.64 6.64 0 0 0-5.39 3.61h68.55a6.64 6.64 0 0 0-5.4-3.61z" fill="#ED5565"/><path d="M34.09 25.94V.66H7A6.64 6.64 0 0 0 .93 6.55v19.39h33.16z" fill="#4A89DC"/><path fill="#FFF" d="M5.02 3.72l-.27.84h-.88l.71.51-.27.84.71-.52.71.52-.27-.84.71-.51h-.88zM5.02 7.96l-.27.84h-.88l.71.52-.27.83.71-.51.71.51-.27-.83.71-.52h-.88zM5.02 12.2l-.27.84h-.88l.71.52-.27.84.71-.52.71.52-.27-.84.71-.52h-.88zM5.02 16.45l-.27.83h-.88l.71.52-.27.84.71-.52.71.52-.27-.84.71-.52h-.88zM5.29 21.52l-.27-.83-.27.83h-.88l.71.52-.27.84.71-.52.71.52-.27-.84.71-.52zM7.51 5.84l-.27.84h-.88l.71.52-.27.83.71-.52.72.52-.27-.83.71-.52h-.88zM7.51 10.08l-.27.84h-.88l.71.52-.27.83.71-.51.72.51-.27-.83.71-.52h-.88zM7.51 14.33l-.27.83h-.88l.71.52-.27.84.71-.52.72.52-.27-.84.71-.52h-.88zM7.79 19.4l-.28-.83-.27.83h-.88l.71.52-.27.84.71-.52.72.52-.27-.84.71-.52zM10.01 3.72l-.27.84h-.88l.71.51-.27.84.71-.52.71.52-.27-.84.71-.51h-.88zM10.01 7.96l-.27.84h-.88l.71.52-.27.83.71-.51.71.51-.27-.83.71-.52h-.88zM10.01 12.2l-.27.84h-.88l.71.52-.27.84.71-.52.71.52-.27-.84.71-.52h-.88zM10.01 16.45l-.27.83h-.88l.71.52-.27.84.71-.52.71.52-.27-.84.71-.52h-.88zM10.28 21.52l-.27-.83-.27.83h-.88l.71.52-.27.84.71-.52.71.52-.27-.84.71-.52zM12.5 5.84l-.27.84h-.88l.71.52-.27.83.71-.52.72.52-.27-.83.71-.52h-.88zM12.5 10.08l-.27.84h-.88l.71.52-.27.83.71-.51.72.51-.27-.83.71-.52h-.88zM12.5 14.33l-.27.83h-.88l.71.52-.27.84.71-.52.72.52-.27-.84.71-.52h-.88zM12.78 19.4l-.28-.83-.27.83h-.88l.71.52-.27.84.71-.52.72.52-.27-.84.71-.52zM15 3.72l-.27.84h-.88l.71.51-.27.84.71-.52.71.52-.27-.84.71-.51h-.88zM15 7.96l-.27.84h-.88l.71.52-.27.83.71-.51.71.51-.27-.83.71-.52h-.88zM15 12.2l-.27.84h-.88l.71.52-.27.84.71-.52.71.52-.27-.84.71-.52h-.88zM15 16.45l-.27.83h-.88l.71.52-.27.84.71-.52.71.52-.27-.84.71-.52h-.88zM15.27 21.52l-.27-.83-.27.83h-.88l.71.52-.27.84.71-.52.71.52-.27-.84.71-.52zM17.49 5.84l-.27.84h-.88l.71.52-.27.83.71-.52.72.52-.28-.83.72-.52h-.88zM17.49 10.08l-.27.84h-.88l.71.52-.27.83.71-.51.72.51-.28-.83.72-.52h-.88zM17.49 14.33l-.27.83h-.88l.71.52-.27.84.71-.52.72.52-.28-.84.72-.52h-.88zM17.77 19.4l-.28-.83-.27.83h-.88l.71.52-.27.84.71-.52.72.52-.28-.84.72-.52zM19.99 3.72l-.27.84h-.88l.71.51-.27.84.71-.52.71.52-.27-.84.71-.51h-.88zM19.99 7.96l-.27.84h-.88l.71.52-.27.83.71-.51.71.51-.27-.83.71-.52h-.88zM19.99 12.2l-.27.84h-.88l.71.52-.27.84.71-.52.71.52-.27-.84.71-.52h-.88zM19.99 16.45l-.27.83h-.88l.71.52-.27.84.71-.52.71.52-.27-.84.71-.52h-.88zM20.26 21.52l-.27-.83-.27.83h-.88l.71.52-.27.84.71-.52.71.52-.27-.84.71-.52zM22.48 5.84l-.27.84h-.88l.71.52-.27.83.71-.52.72.52-.28-.83.72-.52h-.88zM22.48 10.08l-.27.84h-.88l.71.52-.27.83.71-.51.72.51-.28-.83.72-.52h-.88zM22.48 14.33l-.27.83h-.88l.71.52-.27.84.71-.52.72.52-.28-.84.72-.52h-.88zM22.76 19.4l-.28-.83-.27.83h-.88l.71.52-.27.84.71-.52.72.52-.28-.84.72-.52zM24.98 3.72l-.27.84h-.88l.71.51-.27.84.71-.52.71.52-.27-.84.71-.51h-.88zM24.98 7.96l-.27.84h-.88l.71.52-.27.83.71-.51.71.51-.27-.83.71-.52h-.88zM24.98 12.2l-.27.84h-.88l.71.52-.27.84.71-.52.71.52-.27-.84.71-.52h-.88zM24.98 16.45l-.27.83h-.88l.71.52-.27.84.71-.52.71.52-.27-.84.71-.52h-.88zM25.25 21.52l-.27-.83-.27.83h-.88l.71.52-.27.84.71-.52.71.52-.27-.84.71-.52zM27.47 5.84l-.27.84h-.88l.71.52-.27.83.71-.52.72.52-.28-.83.72-.52h-.88zM27.47 10.08l-.27.84h-.88l.71.52-.27.83.71-.51.72.51-.28-.83.72-.52h-.88zM27.47 14.33l-.27.83h-.88l.71.52-.27.84.71-.52.72.52-.28-.84.72-.52h-.88zM27.75 19.4l-.28-.83-.27.83h-.88l.71.52-.27.84.71-.52.72.52-.28-.84.72-.52zM29.53 5.07l-.27.84.71-.52.71.52-.27-.84.71-.51h-.88l-.27-.84-.27.84h-.88zM29.97 7.96l-.27.84h-.88l.71.52-.27.83.71-.51.71.51-.27-.83.71-.52h-.88zM29.97 12.2l-.27.84h-.88l.71.52-.27.84.71-.52.71.52-.27-.84.71-.52h-.88zM29.97 16.45l-.27.83h-.88l.71.52-.27.84.71-.52.71.52-.27-.84.71-.52h-.88zM30.24 21.52l-.27-.83-.27.83h-.88l.71.52-.27.84.71-.52.71.52-.27-.84.71-.52z"/></g></symbol><symbol id="heart-active" viewBox="0 0 13 11">
<path d="M12,1c-1.3-1.3-3.4-1.3-4.7,0L6.5,1.7L5.7,1C4.4-0.3,2.3-0.3,1,1c-1.3,1.3-1.3,3.4,0,4.6l0.8,0.8L6.5,11l4.7-4.6L12,5.6  C13.3,4.3,13.3,2.2,12,1z"/>
</symbol><symbol id="heart" viewBox="0 0 20 17">
<path d="M18.5,1.5c-2-2-5.3-2-7.3,0L10,2.7L8.8,1.5c-2-2-5.3-2-7.3,0c-2,2-2,5.2,0,7.2l1.2,1.2L10,17l7.3-7.2l1.2-1.2
  C20.5,6.7,20.5,3.5,18.5,1.5z M14.9,9.8L10,14.6L5.1,9.8L2.7,7.5C1.4,6.1,1.4,4,2.7,2.7c1.3-1.3,3.5-1.3,4.9,0L10,5.1l2.4-2.4
  c1.3-1.3,3.5-1.3,4.9,0c1.3,1.3,1.3,3.5,0,4.8L14.9,9.8z"/>
</symbol><symbol id="htmlacademy" viewBox="0 0 27 34">
<style type="text/css">
  .st0{fill:#231F20;}
</style>
<path class="st0" d="M13.6,0l-0.2,0L0,1.4V26l13.5,8L27,26l0,0V1.4L13.6,0z M19.3,16.8l-0.9,0.5l-5-3l0,1.4l3.8,2.3l-0.8,0.5l-3-1.8
  l0,1.4l1.9,1.1l-1.8,1.1L2,13.6l11.4-6.8L25,13.5l-4.5,2.6l-7.1-4.2l0,1.4L19.3,16.8z M1.9,15.1l11.4,6.8l0,1l-8-4.7l0,1.4l8,4.8
  l0,1.1l-8-4.7l0,1.4l8,4.8l0,0l8.2-4.9v-1.3l0-0.1V17l3.4-2v10l-11.6,6.9L1.9,24.9V15.1z M1.9,12.1V3.1l11.6-1.2l11.6,1.2v9
  L13.5,5.3l0-0.1l-0.1,0l-0.1,0v0.1L1.9,12.1z"/>
</symbol><symbol id="instagram" viewBox="0 0 23 23">
<style type="text/css">
  .st0{fill:#231F20;}
</style>
<path class="st0" d="M17,1.5c2.5,0,4.5,2,4.5,4.5v11c0,2.5-2,4.5-4.5,4.5H6c-2.5,0-4.5-2-4.5-4.5V6c0-2.5,2-4.5,4.5-4.5L17,1.5
  M17,0H6C2.7,0,0,2.7,0,6v11c0,3.3,2.7,6,6,6h11c3.3,0,6-2.7,6-6V6C23,2.7,20.3,0,17,0L17,0z"/>
<path class="st0" d="M11.5,7.1c2.4,0,4.4,2,4.4,4.4c0,2.4-2,4.4-4.4,4.4c-2.4,0-4.4-2-4.4-4.4C7.1,9.1,9.1,7.1,11.5,7.1 M11.5,5.6
  c-3.3,0-5.9,2.7-5.9,5.9s2.7,5.9,5.9,5.9s5.9-2.7,5.9-5.9S14.8,5.6,11.5,5.6L11.5,5.6z"/>
<circle class="st0" cx="17.6" cy="5.4" r="1.3"/>
</symbol><symbol id="map-marker" viewBox="-9 -9 54 54">
<style type="text/css">
  .st0{fill:#FFFFFF;}
  .st1{fill:#192144;}
</style>
<circle class="st0" cx="18" cy="18" r="27"/>
<circle class="st1" cx="18" cy="18" r="11.8"/>
</symbol><symbol id="menu-close" viewBox="0 0 18 18">
<style type="text/css">
  .st0{fill:#606161;}
</style>
<path class="st0" d="M10.3,9l7.4-7.4c0.4-0.4,0.4-0.9,0-1.3s-0.9-0.4-1.3,0L9,7.7L1.6,0.3c-0.4-0.4-0.9-0.4-1.3,0s-0.4,0.9,0,1.3
  L7.7,9l-7.4,7.4c-0.4,0.4-0.4,0.9,0,1.3v0c0.4,0.4,0.9,0.4,1.3,0L9,10.3l7.4,7.4c0.4,0.4,0.9,0.4,1.3,0v0c0.4-0.4,0.4-0.9,0-1.3
  L10.3,9z"/>
</symbol><symbol id="menu" viewBox="0 0 25 11">
<g>
  <path d="M1.5,3h22C24.3,3,25,2.3,25,1.5S24.3,0,23.5,0h-22C0.7,0,0,0.7,0,1.5S0.7,3,1.5,3z"/>
  <path d="M23.5,8h-22C0.7,8,0,8.7,0,9.5S0.7,11,1.5,11h22c0.8,0,1.5-0.7,1.5-1.5S24.3,8,23.5,8z"/>
</g>
</symbol><symbol id="month-arrow-left" viewBox="0 0 18 34">
<path d="M3.6,17l14-14.4c0.6-0.6,0.6-1.6,0-2.1c-0.6-0.6-1.5-0.6-2.1,0L0.4,15.9c-0.6,0.6-0.6,1.6,0,2.1l15.1,15.5
  c0.3,0.3,0.7,0.4,1,0.4s0.8-0.1,1-0.4c0.6-0.6,0.6-1.6,0-2.1L3.6,17z"/>
</symbol><symbol id="month-arrow-right" viewBox="0 0 18 34">
<path d="M14.4,17L0.4,2.6C-0.1,2-0.1,1,0.4,0.4c0.6-0.6,1.5-0.6,2.1,0l15.1,15.5c0.6,0.6,0.6,1.6,0,2.1L2.5,33.6
  c-0.3,0.3-0.7,0.4-1,0.4s-0.8-0.1-1-0.4c-0.6-0.6-0.6-1.6,0-2.1L14.4,17z"/>
</symbol><symbol id="plane" viewBox="0 0 19 21">
<path d="M18.9,18.9c-0.1-0.3-3.7-10.1-3.7-10.1c0,0,0,0,0,0c-0.1-0.5,0.1-0.7,0.3-1.1c0,0,2.1-3.5,2.8-4.6c0.7-1.2,0.6-2.3-0.1-2.8
  c-0.7-0.5-1.7-0.1-2.5,1c-0.8,1.1-3,4.5-3,4.5c-0.3,0.4-0.4,0.7-0.9,0.8c0,0,0,0,0,0C11.7,6.5,1.5,7,1.2,7c-0.3,0-0.7,0.1-1,0.6
  C-0.2,8.3,0,8.5,0.4,8.6c0,0,8,2.6,8.3,2.7C9,11.3,9,11.5,8.9,11.9c-0.2,0.4-1.4,2.3-1.6,2.6c-0.1,0.2-0.2,0.2-0.4,0.3l-2.8,1
  c-0.1,0-0.3,0.1-0.4,0.3c0,0-0.2,0.3-0.4,0.6c-0.2,0.3-0.1,0.5,0.2,0.5c0.3,0.1,2.1,0.2,2.1,0.2c0,0,0.3,0.1,0.4,0.1
  c0.2,0.1,0.4,0.3,0.2,0.6c-0.3,0.6-0.4,1.2-0.2,1.3s0.6-0.2,1-0.7c0.2-0.3,0.4-0.2,0.6,0C7.8,18.6,8,18.8,8,18.8c0,0,0.8,1.6,1,1.9
  c0.2,0.3,0.4,0.3,0.6,0c0.2-0.3,0.4-0.6,0.4-0.6c0.1-0.1,0.1-0.3,0.1-0.5l-0.3-3.1c0-0.2,0-0.2,0.1-0.5c0.1-0.2,1.4-2.2,1.6-2.5
  c0.2-0.3,0.4-0.3,0.6-0.1c0.2,0.2,5.7,6.7,5.7,6.7c0.3,0.3,0.5,0.4,0.9-0.2C19.1,19.5,19,19.1,18.9,18.9z"/>
</symbol><symbol id="qty-minus-mobile" viewBox="0 0 14 2">
<style type="text/css">
  .st0{fill:#606161;}
</style>
<rect class="st0" width="14" height="2"/>
</symbol><symbol id="qty-minus" viewBox="0 0 20 2">
<style type="text/css">
  .st0{fill:#606161;}
</style>
<rect class="st0" width="20" height="2"/>
<rect class="st0" width="20" height="2"/>
</symbol><symbol id="qty-plus-mobile" viewBox="0 0 14 14">
<style type="text/css">
  .st0{fill:#606161;}
</style>
<polygon class="st0" points="8,6 8,0 6,0 6,6 0,6 0,8 6,8 6,14 8,14 8,8 14,8 14,6 "/>
</symbol><symbol id="qty-plus" viewBox="0 0 20 20">
<style type="text/css">
  .st0{fill:#606161;}
</style>
<polygon class="st0" points="20,9 11,9 11,0 9,0 9,9 0,9 0,11 9,11 9,20 11,20 11,11 20,11 "/>
</symbol><symbol id="return" viewBox="0 0 32 16.1">
<style type="text/css">
  .st0{fill:#010101;}
</style>
<path class="st0" d="M27.6,2.1H10L10,0L0,3l10,2.9l0-1.8h17.6c0.4,0,2.4,0,2.4,2v6.1c0,0.5-0.1,0.9-0.4,1.2C29,14,28,14.1,27.6,14.1
  H4v2h23.6c0,0,0,0,0.1,0c0.4,0,2.1-0.1,3.2-1.2c0.7-0.7,1.1-1.6,1.1-2.7V6.1C32,4.1,29.4,2.1,27.6,2.1z"/>
</symbol><symbol id="run" viewBox="0 0 20 21">
<g>
  <ellipse cx="14.3" cy="2" rx="2.1" ry="2"/>
  <path d="M19.4,4.6c-0.5-0.2-1.2-0.1-1.4,0.4l-0.9,1.6L13,4.3c-0.2-0.1-0.3-0.1-0.6-0.1H7.9C7.5,4.2,7.2,4.3,7,4.7L5.3,7.6
    C5,8.1,5.2,8.7,5.7,8.9C5.9,9,6.1,9,6.2,9C6.6,9,7,8.8,7.2,8.5l1.4-2.4h1.6l-4.7,8.1H1.1c-0.6,0-1.1,0.4-1.1,1s0.5,1,1.1,1h5
    c0.4,0,0.7-0.2,0.9-0.5l1.9-3.2l3,2.6L11.7,20c-0.1,0.5,0.4,1,1,1c0,0,0,0,0.1,0c0.6,0,1-0.4,1.1-0.9l0.3-5.4
    c0-0.3-0.1-0.6-0.3-0.8l-2.6-2.2l2.7-4.6l3.1,1.8C17.1,9,17.5,9.1,17.7,9c0.3-0.1,0.5-0.2,0.7-0.5L19.9,6C20.2,5.5,20,4.9,19.4,4.6
    z"/>
</g>
</symbol><symbol id="show-more-plus" viewBox="0 0 27 27">
<path d="M25.5,12H15V1.5C15,0.7,14.3,0,13.5,0S12,0.7,12,1.5V12H1.5C0.7,12,0,12.7,0,13.5S0.7,15,1.5,15H12v10.5
  c0,0.8,0.7,1.5,1.5,1.5s1.5-0.7,1.5-1.5V15h10.5c0.8,0,1.5-0.7,1.5-1.5S26.3,12,25.5,12z"/>
</symbol><symbol id="small-arrow" viewBox="0 0 5 10">
<style type="text/css">
  .st0{fill:#606161;}
</style>
<polygon class="st0" points="3,8.1 3,0 2,0 2,8.1 0,6.1 0,7.5 2.5,10 5,7.5 5,6.1 "/>
</symbol><symbol id="small-cross" viewBox="0 0 9 9">
<path d="M5.2,4.5l3.7-3.7C9,0.6,9,0.3,8.9,0.1S8.4,0,8.2,0.1L4.5,3.8L0.8,0.1C0.6,0,0.3,0,0.1,0.1S0,0.6,0.1,0.8l3.7,3.7L0.1,8.2
  C0,8.4,0,8.7,0.1,8.9C0.2,9,0.4,9,0.5,9s0.2,0,0.3-0.1l3.7-3.7l3.7,3.7C8.3,9,8.4,9,8.5,9s0.2,0,0.3-0.1C9,8.7,9,8.4,8.9,8.2
  L5.2,4.5z"/>
</symbol><symbol id="sprite"><symbol id="bike" viewBox="0 0 24 21">
<path d="M16,3.6c1,0,1.8-0.8,1.8-1.8S17,0,16,0s-1.8,0.8-1.8,1.8S15,3.6,16,3.6z M19,11c-2.8,0-5,2.3-5,5s2.2,5,5,5s5-2.3,5-5
  S21.8,11,19,11z M19,19.6c-1.9,0-3.5-1.6-3.5-3.5s1.6-3.5,3.5-3.5s3.5,1.6,3.5,3.5S20.9,19.6,19,19.6z M14.8,8.9H19V7.1h-3.2
  l-1.9-3.3C13.6,3.3,13.1,3,12.4,3c-0.5,0-0.9,0.2-1.2,0.5L7.5,7.2C7.2,7.5,7,7.9,7,8.4C7,9,7.3,9.6,7.8,9.9l3.3,2v5H13v-6.5
  l-2.2-1.7l2.3-2.4L14.8,8.9z M5,11c-2.8,0-5,2.3-5,5s2.2,5,5,5s5-2.3,5-5S7.8,11,5,11z M5,19.6c-1.9,0-3.5-1.6-3.5-3.5
  s1.6-3.5,3.5-3.5s3.5,1.5,3.5,3.5S6.9,19.6,5,19.6z"/>
</symbol><symbol id="bus" viewBox="0 0 17 21">
<path d="M16.2,3.1c-0.2-1.2-1-1.6-2.1-2.1C13,0.6,10.4,0,8.5,0C6.6,0,4,0.6,2.9,1C1.8,1.5,1.1,1.9,0.8,3.1L0,9.5v8.8h1.4v1.4
  c0,1.7,2.5,1.7,2.5,0v-1.4h4.5h0h4.7v1.4c0,1.7,2.5,1.7,2.5,0v-1.4H17V9.5L16.2,3.1z M5,1.6h3.4H12c0.7,0,0.7,1,0,1H8.4H5
  C4.3,2.7,4.3,1.6,5,1.6z M2.7,15.6c-0.6,0-1.2-0.5-1.2-1.2c0-0.7,0.5-1.2,1.2-1.2c0.6,0,1.2,0.5,1.2,1.2C3.8,15,3.3,15.6,2.7,15.6z
  M8.4,10.2H2.2c-0.6,0-0.7-0.4-0.7-0.9l0.6-4.7c0.1-0.6,0.3-0.9,1-0.9h5.3h5.4c0.7,0,0.9,0.4,1,0.9l0.6,4.7c0.1,0.4-0.1,0.9-0.7,0.9
  H8.4z M14.3,15.6c-0.6,0-1.2-0.5-1.2-1.2c0-0.7,0.5-1.2,1.2-1.2c0.6,0,1.2,0.5,1.2,1.2C15.5,15,15,15.6,14.3,15.6z"/>
</symbol><symbol id="business" viewBox="0 0 17 21">
<style type="text/css">
  .st0{fill:#010101;}
</style>
<path class="st0" d="M16.4,15.1c-0.9-1.2-2-2-3.6-2.4l-1.5,5.2c0,0.5-0.4,0.9-0.9,0.9c-0.5,0-0.9-0.4-0.9-0.9v-4.2
  c0-0.6-0.5-1.1-1.1-1.1c-0.6,0-1.1,0.5-1.1,1.1v4.2c0,0.5-0.4,0.9-0.9,0.9c-0.5,0-0.9-0.4-0.9-0.9l-1.5-5.2
  c-1.6,0.4-2.7,1.2-3.6,2.4C0.2,15.6,0,16.6,0,17.1c0,0.1,0,0.3,0,0.4v0.9v0.9c0,1,0.8,1.7,1.7,1.7h13.5c1,0,1.7-0.8,1.7-1.7v-0.9
  v-0.9c0-0.2,0-0.3,0-0.4C17,16.6,16.8,15.6,16.4,15.1z M3.9,4.6c0,2.6,1.6,6.3,4.6,6.3c2.9,0,4.6-3.8,4.6-6.3c0-2.6-2-4.6-4.6-4.6
  C6,0,3.9,2.1,3.9,4.6z"/>
</symbol><symbol id="close" viewBox="0 0 18.6 18.6">
<path d="M11.4,9.3l6.7-6.7c0.6-0.6,0.6-1.5,0-2.1s-1.5-0.6-2.1,0L9.3,7.2L2.6,0.4C2-0.1,1-0.1,0.4,0.4C-0.1,1-0.1,2,0.4,2.6l6.7,6.7
  L0.4,16c-0.6,0.6-0.6,1.5,0,2.1s1.5,0.6,2.1,0l6.7-6.7l6.7,6.7c0.6,0.6,1.5,0.6,2.1,0s0.6-1.5,0-2.1L11.4,9.3z"/>
</symbol><symbol id="contacts-location" viewBox="0 0 28 43">
<style type="text/css">
  .st0{fill:#010101;}
</style>
<path class="st0" d="M11.7,13.9c0-1.2,1-2.2,2.3-2.2s2.3,1,2.3,2.2c0,1.2-1,2.2-2.3,2.2C12.8,16.1,11.7,15.1,11.7,13.9z M14,8.1
  c-3.2,0-5.9,2.6-5.9,5.8s2.6,5.8,5.9,5.8c3.2,0,5.9-2.6,5.9-5.8C19.9,10.7,17.2,8.1,14,8.1z M0,13.6c0,9.1,10.9,16.2,11.7,26.7v0.4
  c0,1.2,1,2.2,2.3,2.2s2.3-1,2.3-2.2v-0.4C17.2,29.8,28,22.8,28,13.6C28,6.1,21.7,0,14,0C6.3,0,0,6.1,0,13.6z M14,4.5
  c5.2,0,9.5,4.2,9.5,9.4c0,5.2-4.2,9.4-9.5,9.4s-9.5-4.2-9.5-9.4C4.5,8.7,8.8,4.5,14,4.5z"/>
</symbol><symbol id="contacts-mail" viewBox="0 0 36 26">
<style type="text/css">
  .st0{fill:#010101;}
</style>
<path class="st0" d="M0,23c0,1.6,1.3,3,3,3h30c1.7,0,3-1.3,3-3V3c0-1.6-1.3-3-3-3H3C1.3,0,0,1.3,0,3L0,23L0,23z M11,13L4.2,6.2
  c-0.6-0.6-0.6-1.5,0-2c0.6-0.6,1.5-0.6,2.1,0l11,10.9c0.4,0.4,1.2,0.4,1.6,0l11-10.9c0.6-0.6,1.5-0.6,2.1,0c0.6,0.6,0.6,1.5,0,2
  L25,13l6.9,6.8c0.6,0.6,0.6,1.5,0,2c-0.6,0.6-1.5,0.6-2.1,0l-6.9-6.8c0,0-2.1,2.2-2.5,2.5c-0.6,0.6-1.4,1-2.4,1
  c-0.9,0-1.8-0.4-2.4-1c-0.4-0.4-2.5-2.5-2.5-2.5l-6.9,6.8c-0.6,0.6-1.5,0.6-2.1,0c-0.6-0.6-0.6-1.5,0-2L11,13z"/>
</symbol><symbol id="contacts-phone" viewBox="0 0 36 36">
<style type="text/css">
  .st0{fill:#010101;}
</style>
<path class="st0" d="M18,0C11.6,0,5.2,1.1,2.8,3.4C0.9,5.3,0.2,8.7,0,10.8c0,0,0,0.2,0,0.3c0,0.8,0.7,1.5,1.5,1.5
  c0.1,0,3.7-0.3,5.9-0.5c0.1,0,0.1,0,0.2,0c0.8,0,1.5-0.7,1.5-1.5l0-3C9,6.7,9.7,6,10.7,6h14.7C26.2,6,27,6.7,27,7.7l0,3
  c0,0.8,0.7,1.5,1.5,1.5c0.1,0,0.1,0,0.2,0c2.2,0.2,5.8,0.5,5.9,0.5c0.8,0,1.5-0.7,1.5-1.5c0-0.1,0-0.3,0-0.3
  c-0.2-2.1-0.9-5.5-2.8-7.4C30.8,1.1,24.4,0,18,0z M18,19.5c-1.7,0-3,1.3-3,3s1.3,3,3,3c1.7,0,3-1.3,3-3S19.7,19.5,18,19.5z
  M15.7,12.7v-1.9c0-1-0.8-1.9-1.9-1.9S12,9.8,12,10.9v1.9L1.9,23.6c-0.7,0.7-1.1,1.6-1.1,2.7v3c0,1.7,1.3,3,3,3h0.8v1.9
  c0,1,0.8,1.9,1.9,1.9s1.9-0.8,1.9-1.9v-1.9h19.5v1.9c0,1,0.8,1.9,1.9,1.9c1,0,1.9-0.8,1.9-1.9v-1.9h0.8c1.7,0,3-1.3,3-3v-3
  c0-1.1-0.4-2-1.1-2.7L24,12.7v-1.9c0-1-0.8-1.9-1.9-1.9s-1.9,0.8-1.9,1.9v1.9H15.7z M18,16.5c3.3,0,6,2.7,6,6c0,3.3-2.7,6-6,6
  c-3.3,0-6-2.7-6-6C12,19.2,14.7,16.5,18,16.5z"/>
</symbol><symbol id="dots" viewBox="0 0 27 5">
<style type="text/css">
  .st0{fill:#606161;}
</style>
<circle class="st0" cx="2.5" cy="2.5" r="2.5"/>
<circle class="st0" cx="13.5" cy="2.5" r="2.5"/>
<circle class="st0" cx="24.5" cy="2.5" r="2.5"/>
</symbol><symbol id="dropdown-form" viewBox="0 0 17 9">
<path d="M8.5,7.2l-7.2-7C1-0.1,0.5-0.1,0.2,0.2c-0.3,0.3-0.3,0.8,0,1L8,8.8c0.3,0.3,0.8,0.3,1.1,0l7.7-7.5C16.9,1.1,17,0.9,17,0.7
  s-0.1-0.4-0.2-0.5c-0.3-0.3-0.8-0.3-1.1,0L8.5,7.2z"/>
</symbol><symbol id="dropdown" viewBox="0 0 10 5">
<polygon points="5,5 0,0 10,0 "/>
</symbol><symbol id="facebook" viewBox="0 0 11 21">
<g>
  <path d="M7.8,21H2.2v-9.8H0V6.4h2.1C2,4.2,2.4,2.6,3.4,1.5C4.2,0.6,5.5,0.1,7.1,0L11,0v4.7H7.9C7.8,4.9,7.7,5.5,7.7,6.4H11v4.8H7.8
    V21z M3.4,19.9h3.1v-9.8h3.2V7.5H6.5l0-0.6c0-1.5,0-2.9,0.8-3.4l0.2-0.1h2.3V1.1H7.1C5.9,1.2,4.9,1.6,4.3,2.3
    C3.5,3.2,3.2,4.8,3.4,6.9l0.1,0.6H1.2v2.6h2.2V19.9z"/>
</g>
</symbol><symbol id="filter-close" viewBox="0 0 12 12">
<style type="text/css">
  .st0{fill:#606161;}
</style>
<path class="st0" d="M6.9,6l4.9-4.9c0.2-0.2,0.2-0.6,0-0.9s-0.6-0.2-0.9,0L6,5.1L1.1,0.2c-0.2-0.2-0.6-0.2-0.9,0s-0.2,0.6,0,0.9
  L5.1,6l-4.9,4.9c-0.2,0.2-0.2,0.6,0,0.9v0c0.2,0.2,0.6,0.2,0.9,0L6,6.9l4.9,4.9c0.2,0.2,0.6,0.2,0.9,0v0c0.2-0.2,0.2-0.6,0-0.9
  L6.9,6z"/>
</symbol><symbol id="filter" viewBox="0 0 15 10">
<rect x="4" width="2" height="2"/>
<rect width="3" height="2"/>
<rect x="7" width="8" height="2"/>
<rect x="4" y="8" width="2" height="2"/>
<rect y="8" width="3" height="2"/>
<rect x="7" y="8" width="8" height="2"/>
<rect x="9" y="4" width="2" height="2"/>
<rect x="12" y="4" width="3" height="2"/>
<rect y="4" width="8" height="2"/>
</symbol><symbol id="flag-australia" viewBox="0 0 70 47"><g fill-rule="nonzero" fill="none"><path d="M64.31.33H6A6.64 6.64 0 0 0 .25 5.91v35.72a6.64 6.64 0 0 0 6.56 5.64H63.5a6.64 6.64 0 0 0 6.64-6.64V6.92A6.64 6.64 0 0 0 64.31.33z" fill="#4658A9"/><path d="M25.11.29H6.71A6.64 6.64 0 0 0 .14 6.93v17.32h25L25.11.29z" fill="#4658A9"/><path d="M10.68 17.69v6.56h3.9v-6.71l6.71 6.71h3.82v-3l-7-7h7v-4h-7l7-7v-3h-3.83l-6.7 6.7V.25h-3.9v6.56L4.52.65A6.66 6.66 0 0 0 .89 3.82l6.41 6.41H.14v4H7.3L.14 21.39v2.83h4l6.54-6.53z" fill="#FFF"/><path d="M11.68 14.95v9.31h1.9V14.8L23 24.25h2.08V23l-9.78-9.78h9.78v-1.93H15.3l9.78-9.78V.29H23l-9.45 9.45V.29h-1.9v9.3L3.32 1.25A6.67 6.67 0 0 0 1.56 2.8l8.49 8.49H.12v1.95h9.93L.12 23.17v1.09h2.23l9.33-9.31z" fill="#EC5463"/><path d="M41.83 13.17c-.32.23-.51.1-.41-.29l.35-1.43a1.3 1.3 0 0 0-.37-1.17l-1-.91c-.3-.26-.22-.48.17-.49h1.46a1.05 1.05 0 0 0 .91-.71l.46-1.57c.11-.38.31-.39.44 0l.55 1.54a1.1 1.1 0 0 0 1 .68h1.49c.39 0 .47.22.17.48l-1.13 1a1.24 1.24 0 0 0-.34 1.16l.36 1.26c.11.38-.07.52-.41.32l-1.21-.75a1.16 1.16 0 0 0-1.19 0l-1.3.88zM53.83 17.17c-.32.23-.51.1-.41-.29l.35-1.43a1.3 1.3 0 0 0-.37-1.17l-1-.91c-.3-.26-.22-.48.17-.49h1.46a1.05 1.05 0 0 0 .91-.71l.46-1.57c.11-.38.31-.39.44 0l.55 1.54a1.1 1.1 0 0 0 1 .68h1.49c.39 0 .47.22.17.48l-1.13 1a1.24 1.24 0 0 0-.34 1.16l.36 1.26c.11.38-.07.52-.41.32l-1.21-.75a1.16 1.16 0 0 0-1.19 0l-1.3.88zM35.83 24.17c-.32.23-.51.1-.41-.29l.35-1.43a1.3 1.3 0 0 0-.37-1.17l-1-.91c-.3-.26-.22-.48.17-.49h1.46a1.05 1.05 0 0 0 .91-.71l.46-1.57c.11-.38.31-.39.44 0l.55 1.54a1.1 1.1 0 0 0 1 .68h1.49c.39 0 .47.22.17.48l-1.13 1a1.24 1.24 0 0 0-.34 1.16l.36 1.26c.11.38-.07.52-.41.32l-1.21-.75a1.16 1.16 0 0 0-1.19 0l-1.3.88zM11.29 40.14c-.41.29-.65.13-.53-.37l.44-1.84a1.67 1.67 0 0 0-.48-1.5l-1.35-1.17c-.38-.33-.28-.61.22-.63l1.89-.05a1.35 1.35 0 0 0 1.18-.91l.59-2c.14-.49.4-.5.57 0l.71 2a1.42 1.42 0 0 0 1.23.88h1.92c.5 0 .61.28.23.62l-1.46 1.28a1.59 1.59 0 0 0-.44 1.5l.47 1.62c.14.49-.1.67-.53.4l-1.56-1a1.51 1.51 0 0 0-1.53 0l-1.57 1.17zM50.34 29.2c-.23.16-.36.07-.3-.2l.25-1a.93.93 0 0 0-.27-.83l-.75-.65c-.21-.18-.16-.34.12-.35h1a.75.75 0 0 0 .65-.51l.33-1.12c.08-.27.22-.28.32 0l.4 1.1a.79.79 0 0 0 .68.49h1.07c.28 0 .34.16.13.34l-.81.71A.88.88 0 0 0 53 28l.26.9c.08.27-.05.37-.29.23l-.87-.54a.84.84 0 0 0-.85 0l-.91.61z" fill="#FFF"/></g>
</symbol><symbol id="flag-belgium" viewBox="0 0 70 47"><g fill-rule="nonzero" fill="none"><path d="M7.27.85A6.36 6.36 0 0 0 .91 7.21v34.27a6.36 6.36 0 0 0 6.36 6.36h17v-47l-17 .01z" fill="#434A54"/><path d="M24.25.85v47H47.6v-47H24.25z" fill="#FFCE54"/><path d="M64.54.85H47.59v47h16.95a6.36 6.36 0 0 0 6.36-6.36V7.21A6.36 6.36 0 0 0 64.54.85z" fill="#ED5565"/></g>
</symbol><symbol id="flag-bosnia" viewBox="0 0 70 47"><g fill-rule="nonzero" fill="none"><rect fill="#4758A9" x=".9" y=".13" width="70" height="47" rx="6.36"/><path fill="#F6D660" d="M13.9.13h37v47z"/><path d="M8.19 4.88c-.27-.08-.28-.24 0-.36l1-.44a.93.93 0 0 0 .49-.73v-1c0-.28.17-.33.35-.12l.67.8c.203.22.517.3.8.2l1.08-.43c.26-.11.36 0 .2.24l-.62 1a.79.79 0 0 0 0 .84l.65.85c.17.22.08.36-.19.31l-1.06-.2a.88.88 0 0 0-.8.32l-.55.76c-.17.23-.33.19-.36-.09l-.11-1a.84.84 0 0 0-.55-.65l-1-.3zM12.51 10.38c-.27-.08-.28-.24 0-.36l1-.44a.92.92 0 0 0 .49-.73v-1c0-.28.17-.33.35-.12l.67.8c.203.22.517.3.8.2l1.08-.43c.26-.1.35 0 .2.24l-.62 1a.79.79 0 0 0 0 .84l.65.85c.17.22.08.36-.19.31l-1.06-.2a.88.88 0 0 0-.8.32l-.55.76c-.17.23-.33.19-.36-.09l-.12-1a.84.84 0 0 0-.55-.65l-.99-.3zM16.84 15.88c-.27-.08-.28-.24 0-.36l1-.44a.92.92 0 0 0 .49-.73v-1c0-.28.17-.33.35-.12l.67.81c.203.22.517.3.8.2l1.08-.43c.26-.11.35 0 .2.24l-.62 1a.79.79 0 0 0 0 .84l.65.85c.17.22.08.36-.19.31l-1.06-.2a.88.88 0 0 0-.8.32l-.55.76c-.16.23-.33.19-.36-.09l-.11-1a.84.84 0 0 0-.55-.65l-1-.31zM21.17 21.38c-.27-.08-.28-.24 0-.36l1-.44a.92.92 0 0 0 .49-.73v-1c0-.28.17-.33.35-.12l.67.81c.203.22.517.3.8.2l1.08-.43c.26-.1.35 0 .2.24l-.62 1a.79.79 0 0 0 0 .84l.65.85c.17.22.08.36-.19.31l-1.06-.2a.88.88 0 0 0-.8.32l-.55.76c-.17.23-.33.19-.36-.09l-.12-1a.83.83 0 0 0-.55-.65l-.99-.31zM25.5 26.88c-.27-.08-.28-.24 0-.36l1-.44a.93.93 0 0 0 .49-.73v-1c0-.28.17-.33.35-.12l.67.81c.203.22.517.3.8.2l1.08-.43c.26-.11.35 0 .2.24l-.62 1a.79.79 0 0 0 0 .84l.65.85c.17.22.08.36-.19.31l-1.06-.2a.88.88 0 0 0-.8.32l-.55.76c-.17.23-.33.19-.36-.09l-.12-1a.83.83 0 0 0-.55-.65l-.99-.31zM29.83 32.38c-.27-.08-.28-.24 0-.36l1-.44a.93.93 0 0 0 .49-.73v-1c0-.28.17-.33.35-.12l.67.81c.203.22.517.3.8.2l1.08-.43c.26-.11.35 0 .2.24l-.62 1a.79.79 0 0 0 0 .84l.65.85c.17.22.08.36-.19.31l-1.06-.2a.88.88 0 0 0-.8.32l-.55.76c-.17.23-.33.19-.36-.09l-.12-1a.84.84 0 0 0-.55-.65l-.99-.31zM34.16 37.89c-.27-.08-.28-.24 0-.36l1-.44a.93.93 0 0 0 .49-.73v-1c0-.28.17-.34.35-.12l.67.81c.203.22.517.3.8.2l1.08-.43c.26-.11.35 0 .2.24l-.62 1a.79.79 0 0 0 0 .84l.65.85c.17.22.08.36-.19.31l-1.06-.2a.88.88 0 0 0-.8.32l-.55.76c-.17.23-.33.19-.36-.09l-.12-1a.84.84 0 0 0-.55-.65l-.99-.31zM37.87 42.6c-.27-.08-.28-.24 0-.36l1-.44a.93.93 0 0 0 .49-.73v-1c0-.28.17-.33.35-.12l.67.81c.203.22.517.3.8.2l1.08-.43c.26-.11.35 0 .21.24l-.62 1a.79.79 0 0 0 0 .84l.65.85c.17.22.09.36-.19.31l-1.06-.2a.88.88 0 0 0-.8.32l-.55.76c-.16.23-.33.19-.36-.09l-.12-1a.84.84 0 0 0-.55-.65l-1-.31z" fill="#FFF"/></g>
</symbol><symbol id="flag-czech" viewBox="0 0 70 47"><g fill-rule="nonzero" fill="none"><path d="M63.92.55H6.65A6.36 6.36 0 0 0 .29 6.91v17.64h70V6.91A6.36 6.36 0 0 0 63.92.55z" fill="#FFF"/><path d="M.28 41.18a6.36 6.36 0 0 0 6.36 6.36h57.28a6.36 6.36 0 0 0 6.36-6.36V24.55h-70v16.63z" fill="#ED5565"/><path d="M2.19 2.38a6.34 6.34 0 0 0-1.9 4.54v34.27a6.34 6.34 0 0 0 1.95 4.57l23.05-21.21L2.19 2.38z" fill="#4758A9"/></g>
</symbol><symbol id="flag-dominica" viewBox="0 0 70 47"><g fill-rule="nonzero" fill="none"><rect fill="#039188" x=".08" y=".55" width="70" height="47" rx="6.36"/><path fill="#FFF" d="M.08 26.14h70.13v4.18H.08z"/><path fill="#434A54" d="M.08 21.96h70.13v4.18H.08z"/><path fill="#F6BB42" d="M.08 17.79h70.13v4.18H.08z"/><path fill="#FFF" d="M37.42.55h4.18v47h-4.18z"/><path fill="#434A54" d="M33.24.55h4.18v47h-4.18z"/><path fill="#F6BB42" d="M29.07.55h4.18v47h-4.18z"/><circle fill="#ED5565" cx="35.15" cy="24.05" r="12.92"/><path d="M44.8 20.51h.78a.13.13 0 0 1 .07.23l-.6.44a.13.13 0 0 0 0 .14l.23.76a.13.13 0 0 1-.2.14l-.65-.45a.13.13 0 0 0-.15 0l-.69.52a.13.13 0 0 1-.2-.14l.26-.8a.13.13 0 0 0 0-.14l-.67-.49a.13.13 0 0 1 .08-.23h.84a.13.13 0 0 0 .12-.09l.25-.72a.13.13 0 0 1 .24 0l.25.72a.13.13 0 0 0 .04.11zM25.49 27.59h-.78a.13.13 0 0 1-.07-.23l.6-.44a.13.13 0 0 0 0-.14l-.23-.76a.13.13 0 0 1 .2-.14l.65.45a.13.13 0 0 0 .15 0l.69-.52a.13.13 0 0 1 .2.14l-.26.8a.13.13 0 0 0 0 .14l.67.49a.13.13 0 0 1-.08.23h-.84a.13.13 0 0 0-.12.09l-.25.72a.13.13 0 0 1-.24 0l-.25-.72a.13.13 0 0 0-.04-.11zM45 26.86l.62.47a.13.13 0 0 1-.08.23h-.75a.13.13 0 0 0-.12.09l-.26.75a.13.13 0 0 1-.24 0l-.26-.74a.13.13 0 0 0-.12-.09h-.86a.13.13 0 0 1-.08-.23l.69-.49a.13.13 0 0 0 0-.14l-.25-.79a.13.13 0 0 1 .2-.14l.68.5a.13.13 0 0 0 .15 0l.63-.44a.13.13 0 0 1 .2.14l-.22.73a.13.13 0 0 0 .07.15zM25.25 21.24l-.62-.47a.13.13 0 0 1 .08-.23h.75a.13.13 0 0 0 .12-.09l.26-.75a.13.13 0 0 1 .24 0l.26.74a.13.13 0 0 0 .12.09h.86a.13.13 0 0 1 .08.23l-.69.49a.13.13 0 0 0 0 .14l.25.79a.13.13 0 0 1-.2.14l-.68-.5a.13.13 0 0 0-.15 0l-.63.44a.13.13 0 0 1-.2-.14l.22-.73a.13.13 0 0 0-.07-.15zM41.5 32.14l.22.75a.13.13 0 0 1-.2.14l-.6-.44a.13.13 0 0 0-.15 0l-.65.46a.13.13 0 0 1-.2-.14l.23-.76a.13.13 0 0 0-.05-.14l-.71-.49a.13.13 0 0 1 .07-.24h.84a.13.13 0 0 0 .12-.09l.26-.79a.13.13 0 0 1 .25 0l.26.8a.13.13 0 0 0 .12.09h.76a.13.13 0 0 1 .07.23l-.61.46a.13.13 0 0 0-.03.16zM28.79 16l-.22-.75a.13.13 0 0 1 .2-.14l.6.44a.13.13 0 0 0 .15 0l.65-.46a.13.13 0 0 1 .2.14l-.23.76a.13.13 0 0 0 .05.14l.71.49a.13.13 0 0 1-.07.24H30a.13.13 0 0 0-.12.09l-.26.79a.13.13 0 0 1-.25 0l-.26-.8a.13.13 0 0 0-.12-.09h-.76a.13.13 0 0 1-.07-.23l.61-.46a.13.13 0 0 0 .02-.16zM40.88 15.51l.64-.44a.13.13 0 0 1 .2.15l-.23.71a.13.13 0 0 0 0 .14l.64.48a.13.13 0 0 1-.07.23h-.79a.13.13 0 0 0-.12.09l-.25.83a.13.13 0 0 1-.25 0l-.26-.8a.13.13 0 0 0-.12-.09h-.83a.13.13 0 0 1-.07-.23l.68-.49a.13.13 0 0 0 0-.14l-.22-.73a.13.13 0 0 1 .2-.14l.62.44a.13.13 0 0 0 .23-.01zM29.41 32.59l-.64.44a.13.13 0 0 1-.2-.15l.23-.71a.13.13 0 0 0 0-.14l-.64-.48a.13.13 0 0 1 .07-.23h.79a.13.13 0 0 0 .12-.09l.25-.83a.13.13 0 0 1 .25 0l.26.8a.13.13 0 0 0 .12.09h.83a.13.13 0 0 1 .07.23l-.68.49a.13.13 0 0 0 0 .14l.22.73a.13.13 0 0 1-.2.14l-.62-.44a.13.13 0 0 0-.23.01zM34.76 13.77L35 13a.13.13 0 0 1 .24 0l.23.71a.13.13 0 0 0 .12.09h.8a.13.13 0 0 1 .08.23l-.63.48a.13.13 0 0 0 0 .15l.28.82a.13.13 0 0 1-.2.15l-.68-.5a.13.13 0 0 0-.15 0l-.68.48a.13.13 0 0 1-.2-.15l.26-.8a.13.13 0 0 0 0-.14l-.61-.46a.13.13 0 0 1 .08-.23h.76a.13.13 0 0 0 .06-.06zM35.53 34.33l-.26.73a.13.13 0 0 1-.24 0l-.23-.71a.13.13 0 0 0-.12-.09h-.8a.13.13 0 0 1-.08-.23l.63-.48a.13.13 0 0 0 0-.15l-.28-.82a.13.13 0 0 1 .2-.15l.68.5a.13.13 0 0 0 .15 0l.68-.48a.13.13 0 0 1 .2.15l-.26.8a.13.13 0 0 0 0 .14l.61.46a.13.13 0 0 1-.08.23h-.76a.13.13 0 0 0-.04.1zM38.93 29.33a2.86 2.86 0 0 0-.05-1.11 2.62 2.62 0 0 0-.09-1 6.11 6.11 0 0 0-.64-3.57 9.9 9.9 0 0 0-1.1-2 .07.07 0 0 1 .08-.1 1 1 0 0 0 1.14-.25.07.07 0 0 0 0-.11 1.47 1.47 0 0 1-.41-.18.07.07 0 0 1 0-.12 1.12 1.12 0 0 0 .29-.22.07.07 0 0 0 0-.11 1.46 1.46 0 0 1-.4-.18.07.07 0 0 1 0-.12 1.16 1.16 0 0 0 .24-.2.07.07 0 0 0 0-.11 1.94 1.94 0 0 1-.59-.3.07.07 0 0 1 0-.11c.073-.05.14-.106.2-.17a.07.07 0 0 0 0-.11 1.58 1.58 0 0 1-.45-.21.07.07 0 0 1 0-.13h.21a.07.07 0 0 0 0-.13c-.62-.35-1.37-1.22-1.84-1.45a1.9 1.9 0 0 0-1.87.1 1 1 0 0 0-.36.64.07.07 0 0 1-.05.05h-.16c-.42.09-.68.46-.36 1.3a.07.07 0 0 0 .13 0 1.53 1.53 0 0 1 .09-.19.07.07 0 0 1 .09 0 .6.6 0 0 0 .51 0 .81.81 0 0 0 .2-.1.07.07 0 0 1 .07 0 .07.07 0 0 1 0 .1.38.38 0 0 0-.05.18.4.4 0 0 0-.18.32.4.4 0 0 0-.14.3 6.32 6.32 0 0 0-.64 3.41 5.19 5.19 0 0 0 1.42 3.27c.022.09.052.176.09.26-.02.15-.02.3 0 .45 0 .45.25.78.45.77.018.209.083.41.19.59a.07.07 0 0 1 0 .09 1.21 1.21 0 0 0-.37.33.07.07 0 0 1-.05 0h-1.27c-.18 0-.07-.23-.21-.47a.77.77 0 0 0-.95-.17c-.32.18-.07.51-.62.56a.07.07 0 0 0-.06.09c.12.284.289.545.5.77.86.095 1.726.125 2.59.09a.07.07 0 0 1 .05 0 1 1 0 0 0 1 .43h.06a.48.48 0 0 0 .41 0 .07.07 0 0 1 .06 0 .53.53 0 0 0 .37 0h.05a.67.67 0 0 0 .3 0 .07.07 0 0 1 .07 0c.12.24.25.38.37.36.13.39.26.62.39.6.13-.02.22-.23.29-.61h.05c.2 0 .36-.37.46-.94a.07.07 0 0 1 .06-.06h.11a.56.56 0 0 0 0-.73v-.41a.07.07 0 0 1 .13 0l.14.32a.147.147 0 1 0 .05.29z" fill="#039188"/></g>
</symbol><symbol id="flag-france" viewBox="0 0 70 47"><g fill-rule="nonzero" fill="none"><path d="M6.51.11A6.36 6.36 0 0 0 .15 6.47v34.27a6.36 6.36 0 0 0 6.36 6.36h17V.1l-17 .01z" fill="#4758A9"/><path d="M23.49.11v47h23.35v-47H23.49z" fill="#FFF"/><path d="M63.78.11H46.83v47h16.95a6.36 6.36 0 0 0 6.36-6.36V6.48A6.36 6.36 0 0 0 63.78.11z" fill="#ED5565"/></g>
</symbol><symbol id="flag-germany" viewBox="0 85 512 344"><path d="M473.655 88.276H38.345C17.167 88.276 0 105.443 0 126.621v73.471h512v-73.471c0-21.178-17.167-38.345-38.345-38.345z" fill="#464655"/><path d="M0 385.379c0 21.177 17.167 38.345 38.345 38.345h435.31c21.177 0 38.345-17.167 38.345-38.345v-73.471H0v73.471z" fill="#f6bb42"/><path fill="#ff4b55" d="M0 200.09h512V311.9H0z"/>
</symbol><symbol id="flag-seychelles" viewBox="0 0 70 47"><g fill-rule="nonzero" fill="none"><path d="M3.88 47l.51-.12 66.47-30.61V7.33A6.36 6.36 0 0 0 64.5.97H46.6L2.28 45.59A6.39 6.39 0 0 0 3.88 47z" fill="#ED5565"/><path d="M7.24 1A6.36 6.36 0 0 0 .88 7.36v34.27c0 .915.197 1.819.58 2.65L24.15 1H7.24z" fill="#4758A9"/><path d="M25.1 1h-.95L1.45 44.28c.14.306.304.6.49.88.11.16.22.31.34.46L46.6 1H25.1z" fill="#FFCE54"/><path fill="#FFF" d="M70.87 30.89V16.26L4.4 46.87z"/><path d="M4.4 46.87l-.41.19a6.32 6.32 0 0 0 3.25.9h57.27a6.36 6.36 0 0 0 6.36-6.36V30.9L4.4 46.87z" fill="#57A863"/></g>
</symbol><symbol id="flag-sri-lanka" viewBox="0 0 70 47"><g fill-rule="nonzero" fill="none"><rect fill="#FFCE54" x=".25" y=".52" width="70" height="47" rx="6.36"/><path fill="#57A863" d="M5.25 42.52v-37h8.11v37z"/><path fill="#FF8416" d="M13.36 42.52v-37h8.11v37z"/><path fill="#ED5565" d="M26.47 42.52v-37h38.79v37z"/><path d="M59.54 16.69a.72.72 0 0 0-.56-.39.7.7 0 0 0-.61.26.59.59 0 0 0-.15.55 4.29 4.29 0 0 1-1.29-.88 11.63 11.63 0 0 0-3.68-2.14 8.18 8.18 0 0 0-2.81-.15 4.6 4.6 0 0 0-2.13 1 2.06 2.06 0 0 0 0 3l.15.18-.09.14a1.22 1.22 0 0 0 .05 1.37c.26.35.33.35.39.35s.22-.28.23-.37a.46.46 0 0 1 .27-.45c.14-.05.25 0 1.15.33a8.4 8.4 0 0 0 4.39.08 4.71 4.71 0 0 1 2.17 0 1 1 0 0 1 .62.68 1 1 0 0 1-.28.92c-.22.24-.4.35-1.24.58a6 6 0 0 1-2.15.16 9.58 9.58 0 0 0-2.18.12 9.48 9.48 0 0 1-2.41.08h-1.71l-.34-.46a1.18 1.18 0 0 1-.18-.51V21l.2.12a.2.2 0 0 0 .23 0c.11-.1.09-.26-.12-.76a1.26 1.26 0 0 1-.07-.39v-.05a.16.16 0 0 0 .16 0c.06-.05.08-.07.12-1.33.04-1.26 0-1.6-.34-2l-.07-.09.15-.16a2 2 0 0 0 .57-1.08l.13-.8-.64.6a.54.54 0 0 1-.48.21.43.43 0 0 1-.41-.18 2.4 2.4 0 0 0-1-.59.33.33 0 0 0-.3 0 .24.24 0 0 0-.09.2 1.44 1.44 0 0 1-.14.34l-.06.1-.18-.18a1.79 1.79 0 0 0-.71-.45c-.27-.07-.45-.12-.58 0-.13.12-.12.25-.12.42 0 .17-.06.31-.06.31s-.08 0-.29-.17a1.42 1.42 0 0 0-1.28-.3l-.67.07.16.41c0 .1 0 .12-.07.27a1 1 0 0 1-.88.38 1.91 1.91 0 0 0-.68.12 2.31 2.31 0 0 1-.58.13l-.47.07a.74.74 0 0 0-.16-.6.83.83 0 0 0-.64-.27.79.79 0 0 0-.67.32 1.15 1.15 0 0 0-.08 1c0 .12.09.31.12.42a3 3 0 0 0 .62.82c.207.201.4.415.58.64.104.146.241.266.4.35l.54.3-.06-.47c.072.063.149.12.23.17.13.08.25.15.36.09a.23.23 0 0 0 .1-.21.65.65 0 0 1 0-.12c.17.27.36.528.57.77l.14.17a7.35 7.35 0 0 1-2.49-.7c-.67-.3-.88-.36-1-.22a.34.34 0 0 0-.1.31 1 1 0 0 0 .4.54.66.66 0 0 0-.23.38l-.2.63-.19.59.65-.06a4.77 4.77 0 0 0 .59-.09l-.32.59.6-.12a2.48 2.48 0 0 0 .49-.16h.07l.09.13c.05.09.22.35.44.3.22-.05.2-.13.23-.3l.05.11c.18.39.36.57.55.55.19-.02.19 0 .22-.26a.51.51 0 0 1 .17-.2.25.25 0 0 1 .17-.07s.07.06.1.14c.03.08 0 .31-.76.78a5 5 0 0 0-2.53 3.61 3.39 3.39 0 0 0 0 1.23c-.21-.23-.5-.52-.92-.93l-1.16-1.13a1 1 0 0 0 .52-.89.81.81 0 0 0-.61-.72.93.93 0 0 0-.38 0c0-.34.06-1 .09-2.55.08-4.13.38-7.27.78-8 .1-.18.17-.32.05-.43-.12-.11-.25 0-.58.19a4.26 4.26 0 0 0-1.38 1.6c-.7 1.32-1 3.12-1 6.86a23.17 23.17 0 0 0 .05 2.35.92.92 0 0 0-.41 0 .8.8 0 0 0-.64.69 1 1 0 0 0 .64 1c.147.068.301.118.46.15a.32.32 0 0 0-.08.29.31.31 0 0 0 0 .11.34.34 0 0 0-.17.1c-.07.08-.13.23 0 .49a.5.5 0 0 0 .22.22.36.36 0 0 0-.1.36c.032.1.1.186.19.24a.4.4 0 0 0 0 .24.43.43 0 0 0 .27.42.5.5 0 0 0 0 .23l-.13-.06a.45.45 0 0 0-.46 0 .42.42 0 0 0-.07.65.81.81 0 0 0 .62.15.7.7 0 0 1-.14.21l-.28.31.23.32a.82.82 0 0 1 0 .91l-.05.06a.49.49 0 0 0-.47-.22.4.4 0 0 0-.3.31c-.07.25 0 .39.25.58a1 1 0 0 0 .55.25.61.61 0 0 1-.12.12l-.52.4.72.11h.21c.06.22.25.65.45.65s.29-.18.33-.23a.81.81 0 0 0 .15-.42h.21l.73-.1-.54-.43-.11-.1a1.13 1.13 0 0 0 .82-.55.46.46 0 0 0-.07-.43.47.47 0 0 0-.45-.15.36.36 0 0 0-.27.24l-.06-.06a.75.75 0 0 1 0-1c.21-.24.17-.35-.05-.56a.8.8 0 0 1-.19-.31h.11a.53.53 0 0 0 .54 0 .36.36 0 0 0 .14-.43.51.51 0 0 0-.38-.27.48.48 0 0 0 .27-.14.85.85 0 0 0 .16.15c.16.12.16.12.16.78s0 .84.19 1c.19.16.18.17.3.12a.22.22 0 0 0 .12-.23.33.33 0 0 1 .2-.12c.23.175.447.365.65.57.265.28.572.516.91.7h.25a1.36 1.36 0 0 0 .41-.12 2.79 2.79 0 0 0 1-.87 7.7 7.7 0 0 0 .85.52c.202.14.436.226.68.25.07.24.16.51.26.81.53 1.57.35 2-.21 2.35-.19.11-.29.13-.91.13-.62 0-.81 0-1.07.21a1.91 1.91 0 0 0-.54 1.1.25.25 0 0 0 .12.22c.13.07.3 0 .59-.13l.13-.08a.57.57 0 0 0 .38.21 1 1 0 0 0 .69-.18l.1-.07.07.07a.85.85 0 0 0 .56.2 1 1 0 0 0 .58-.19l.1-.07c.175.111.374.18.58.2.42.05.48 0 .73-.34a.85.85 0 0 0 .18-.74c0-.16-.06-.42-.06-.58a.94.94 0 0 1 0-.16c.096-.05.196-.09.3-.12a5.89 5.89 0 0 0 .63-.25c.16-.09.73-.68.73-.9 0-.22-.14-.22-.56-.26-.42-.04-.56-.13-.63-.28-.07-.15 0-.5.29-.93.17-.26.32-.51.46-.76l.28-.06c.15 0 .95-.38 1.61-.68a8 8 0 0 1 3.57-1v.28a3.21 3.21 0 0 0 .93 1.94 2.63 2.63 0 0 1 .79 2.23v1l-.16.15c-.15.14-.17.16-.81.2-.64.04-.78.06-1 .26a1.14 1.14 0 0 0-.43.69.35.35 0 0 0 0 .32.28.28 0 0 0 .23.09 1.28 1.28 0 0 0 .52-.21l.17-.11.1.09a.68.68 0 0 0 1 0 .63.63 0 0 0 .54.25c.29 0 .44 0 .59-.23l.14.09c.179.127.39.2.61.21a.56.56 0 0 0 .34-.11l.05.05c.15.11.36 0 .63-.16l.14-.09a.57.57 0 0 0 .4.24.85.85 0 0 0 .64-.21l.11-.09.12.09a.87.87 0 0 0 .76.18.64.64 0 0 0 .37-.27c.288.21.647.3 1 .25a.3.3 0 0 0 .23-.17.66.66 0 0 0-.13-.52 2 2 0 0 1-.47-1c0-.34.07-.5.53-.84.46-.34.71-.74.62-1a.37.37 0 0 0-.4-.25c-.2 0-.43-.21-.58-.54-.34-.77-.27-1.63.26-3.1a6.62 6.62 0 0 0 .62-2.89 3 3 0 0 0-.22-1.49 5.3 5.3 0 0 0-.54-1l-.21-.29.28-.23a2.1 2.1 0 0 0 .82-1.92 2.15 2.15 0 0 0-1.35-1.65 2.61 2.61 0 0 0-1.41-.22 11.61 11.61 0 0 0-1.62.14 10.87 10.87 0 0 1-1.57.13c-.76 0-.86 0-1.11-.15-.25-.15-.28-.17-.33-.5a.39.39 0 0 0-.24-.31c-.21-.07-.61.3-.78.54a1.55 1.55 0 0 1-.15-.31c-.07-.2-.07-.43.37-.65l.61-.29-.46-.28a1.13 1.13 0 0 0-.86-.11 1.16 1.16 0 0 0-.73.5l-.05.08-.16-.15a.74.74 0 0 1-.24-.7.76.76 0 0 1 .53-.53.63.63 0 0 1 .47 0 .18.18 0 0 1 .09.11c.08.29.28.26.32.25.27-.05.43-.53.38-.89v-.12c.392.08.745.292 1 .6a1.13 1.13 0 0 1 0 1.12l-.39.64.62-.12a1.64 1.64 0 0 0 1-.65 1.53 1.53 0 0 0 .07-1.3c.253.108.459.303.58.55.117.16.14.37.06.55a1.79 1.79 0 0 1-.22.49c-.1.13-.18.24-.12.36a.23.23 0 0 0 .22.11 1.6 1.6 0 0 0 .88-.4c.11-.132.197-.28.26-.44.234.335.56.596.94.75.45.19.62.21.7.07.08-.14-.08-.28-.14-.33a2.09 2.09 0 0 1-.26-.61c.22.16.58.45 1 .84a2.4 2.4 0 0 0 1.75.81 1.14 1.14 0 0 0 1-.52 1 1 0 0 0 .31-1.09zM34.4 28a.66.66 0 0 0 .26-.07.2.2 0 0 0 .08.06 1 1 0 0 0-.26 0l-.08.01zm20.85 6a2.2 2.2 0 0 0-1.2.62 2.55 2.55 0 0 0-.12-.53c-.14-.43-.1-.66.45-1.31.08-.09.47-.56.47-.77a.3.3 0 0 0-.08-.23c-.09-.09-.23-.09-.45-.09s-.3 0-.42-.14-.25-.37.05-.75l.2-.25.19.12c1.55 1 1.55 1 1.62 2.08.07 1.08.04 1.11-.71 1.25z" fill="#FFCE54"/></g>
</symbol><symbol id="flag-thailand" viewBox="0 0 70 47"><g fill-rule="nonzero" fill="none"><rect fill="#ED5565" x=".25" y=".07" width="70" height="47" rx="6.36"/><path fill="#FFF" d="M.25 9.57h70v28h-70z"/><path fill="#4758A9" d="M.25 13.57h70v20h-70z"/></g>
</symbol><symbol id="flag-united-kingdom" viewBox="0 0 70 47"><g fill-rule="nonzero" fill="none"><path d="M30.57.68h-3.13V15l-25-12.5a6.62 6.62 0 0 0-2 4.24l19.2 9.6h-7L.41 10.23V12l8.73 4.36H.41v3.13H30.6L30.57.68zM68.23 45.89a6.62 6.62 0 0 0 2.12-4.19L50.93 32h7l12.46 6.23v-1.75l-9-4.48h9v-3.13H40v18.79h3.13V33.34l25.1 12.55zM43.1.68H40v18.79h30.42v-3.13h-9l9-4.48V7.29v-.67l-19.43 9.71h-7L69.36 3.64a6.68 6.68 0 0 0-1-1.23L43.1 15V.68zM.39 28.86V32h8.73L.39 36.36V41.59l19.2-9.6h7L1.41 44.58a6.66 6.66 0 0 0 1 1.24l25-12.49v14.32h3.13V28.86H.39z" fill="#FFF"/><path fill="#EC5565" d="M70.39 28.86v-9.39H39.97V.68h-9.4v18.79H.39v9.39h30.18v18.79h9.4V28.86z"/><path d="M19.61 16.34L.41 6.74V10.22l12.23 6.11 6.97.01zM50.93 16.34l19.43-9.71a6.6 6.6 0 0 0-1.06-3L43.93 16.32l7 .02zM50.93 32l19.42 9.71a6.72 6.72 0 0 0 0-.7v-2.78L57.93 32h-7zM19.61 32L.41 41.6a6.6 6.6 0 0 0 1 3L26.62 32h-7.01z" fill="#EC5565"/><path d="M43.1 15L68.26 2.42A6.61 6.61 0 0 0 64.42.68H43.1V15zM70.39 36.47v-4.48h-8.96zM70.39 16.34v-4.48l-8.96 4.48zM2.46 45.82a6.61 6.61 0 0 0 4.57 1.83h20.41V33.33L2.46 45.82zM43.1 33.33v14.32h20.65a6.61 6.61 0 0 0 4.48-1.75L43.1 33.33zM27.44.68H6.36A6.61 6.61 0 0 0 2.44 2.5l25 12.5V.68zM.39 31.99v4.36l8.72-4.36zM.39 11.97v4.37h8.72z" fill="#4658A9"/></g>
</symbol><symbol id="flag-usa" viewBox="0 0 70 47"><g fill-rule="nonzero" fill="none"><path d="M7 47.61h57.77A6.64 6.64 0 0 0 70.16 44H1.6A6.64 6.64 0 0 0 7 47.61z" fill="#ED5565"/><path d="M.91 40.38v1.34a6.59 6.59 0 0 0 .68 2.27h68.55a6.59 6.59 0 0 0 .68-2.27v-1.34H.91z" fill="#FFF"/><path fill="#ED5565" d="M.91 36.77h69.92v3.61H.91z"/><path fill="#FFF" d="M.91 33.16h69.92v3.61H.91z"/><path fill="#ED5565" d="M.91 29.55h69.92v3.61H.91z"/><path fill="#FFF" d="M.91 25.94h69.92v3.61H.91z"/><path fill="#ED5565" d="M.91 22.33h69.92v3.61H.91z"/><path fill="#FFF" d="M.91 18.72h69.92v3.61H.91z"/><path fill="#ED5565" d="M.91 15.11h69.92v3.61H.91z"/><path fill="#FFF" d="M.91 11.49h69.92v3.61H.91z"/><path fill="#ED5565" d="M.91 7.88h69.92v3.61H.91z"/><path d="M70.83 7.88V6.54a6.59 6.59 0 0 0-.68-2.28H1.6a6.59 6.59 0 0 0-.68 2.28v1.34h69.91z" fill="#FFF"/><path d="M64.76.66H7a6.64 6.64 0 0 0-5.39 3.61h68.55a6.64 6.64 0 0 0-5.4-3.61z" fill="#ED5565"/><path d="M34.09 25.94V.66H7A6.64 6.64 0 0 0 .93 6.55v19.39h33.16z" fill="#4A89DC"/><path fill="#FFF" d="M5.02 3.72l-.27.84h-.88l.71.51-.27.84.71-.52.71.52-.27-.84.71-.51h-.88zM5.02 7.96l-.27.84h-.88l.71.52-.27.83.71-.51.71.51-.27-.83.71-.52h-.88zM5.02 12.2l-.27.84h-.88l.71.52-.27.84.71-.52.71.52-.27-.84.71-.52h-.88zM5.02 16.45l-.27.83h-.88l.71.52-.27.84.71-.52.71.52-.27-.84.71-.52h-.88zM5.29 21.52l-.27-.83-.27.83h-.88l.71.52-.27.84.71-.52.71.52-.27-.84.71-.52zM7.51 5.84l-.27.84h-.88l.71.52-.27.83.71-.52.72.52-.27-.83.71-.52h-.88zM7.51 10.08l-.27.84h-.88l.71.52-.27.83.71-.51.72.51-.27-.83.71-.52h-.88zM7.51 14.33l-.27.83h-.88l.71.52-.27.84.71-.52.72.52-.27-.84.71-.52h-.88zM7.79 19.4l-.28-.83-.27.83h-.88l.71.52-.27.84.71-.52.72.52-.27-.84.71-.52zM10.01 3.72l-.27.84h-.88l.71.51-.27.84.71-.52.71.52-.27-.84.71-.51h-.88zM10.01 7.96l-.27.84h-.88l.71.52-.27.83.71-.51.71.51-.27-.83.71-.52h-.88zM10.01 12.2l-.27.84h-.88l.71.52-.27.84.71-.52.71.52-.27-.84.71-.52h-.88zM10.01 16.45l-.27.83h-.88l.71.52-.27.84.71-.52.71.52-.27-.84.71-.52h-.88zM10.28 21.52l-.27-.83-.27.83h-.88l.71.52-.27.84.71-.52.71.52-.27-.84.71-.52zM12.5 5.84l-.27.84h-.88l.71.52-.27.83.71-.52.72.52-.27-.83.71-.52h-.88zM12.5 10.08l-.27.84h-.88l.71.52-.27.83.71-.51.72.51-.27-.83.71-.52h-.88zM12.5 14.33l-.27.83h-.88l.71.52-.27.84.71-.52.72.52-.27-.84.71-.52h-.88zM12.78 19.4l-.28-.83-.27.83h-.88l.71.52-.27.84.71-.52.72.52-.27-.84.71-.52zM15 3.72l-.27.84h-.88l.71.51-.27.84.71-.52.71.52-.27-.84.71-.51h-.88zM15 7.96l-.27.84h-.88l.71.52-.27.83.71-.51.71.51-.27-.83.71-.52h-.88zM15 12.2l-.27.84h-.88l.71.52-.27.84.71-.52.71.52-.27-.84.71-.52h-.88zM15 16.45l-.27.83h-.88l.71.52-.27.84.71-.52.71.52-.27-.84.71-.52h-.88zM15.27 21.52l-.27-.83-.27.83h-.88l.71.52-.27.84.71-.52.71.52-.27-.84.71-.52zM17.49 5.84l-.27.84h-.88l.71.52-.27.83.71-.52.72.52-.28-.83.72-.52h-.88zM17.49 10.08l-.27.84h-.88l.71.52-.27.83.71-.51.72.51-.28-.83.72-.52h-.88zM17.49 14.33l-.27.83h-.88l.71.52-.27.84.71-.52.72.52-.28-.84.72-.52h-.88zM17.77 19.4l-.28-.83-.27.83h-.88l.71.52-.27.84.71-.52.72.52-.28-.84.72-.52zM19.99 3.72l-.27.84h-.88l.71.51-.27.84.71-.52.71.52-.27-.84.71-.51h-.88zM19.99 7.96l-.27.84h-.88l.71.52-.27.83.71-.51.71.51-.27-.83.71-.52h-.88zM19.99 12.2l-.27.84h-.88l.71.52-.27.84.71-.52.71.52-.27-.84.71-.52h-.88zM19.99 16.45l-.27.83h-.88l.71.52-.27.84.71-.52.71.52-.27-.84.71-.52h-.88zM20.26 21.52l-.27-.83-.27.83h-.88l.71.52-.27.84.71-.52.71.52-.27-.84.71-.52zM22.48 5.84l-.27.84h-.88l.71.52-.27.83.71-.52.72.52-.28-.83.72-.52h-.88zM22.48 10.08l-.27.84h-.88l.71.52-.27.83.71-.51.72.51-.28-.83.72-.52h-.88zM22.48 14.33l-.27.83h-.88l.71.52-.27.84.71-.52.72.52-.28-.84.72-.52h-.88zM22.76 19.4l-.28-.83-.27.83h-.88l.71.52-.27.84.71-.52.72.52-.28-.84.72-.52zM24.98 3.72l-.27.84h-.88l.71.51-.27.84.71-.52.71.52-.27-.84.71-.51h-.88zM24.98 7.96l-.27.84h-.88l.71.52-.27.83.71-.51.71.51-.27-.83.71-.52h-.88zM24.98 12.2l-.27.84h-.88l.71.52-.27.84.71-.52.71.52-.27-.84.71-.52h-.88zM24.98 16.45l-.27.83h-.88l.71.52-.27.84.71-.52.71.52-.27-.84.71-.52h-.88zM25.25 21.52l-.27-.83-.27.83h-.88l.71.52-.27.84.71-.52.71.52-.27-.84.71-.52zM27.47 5.84l-.27.84h-.88l.71.52-.27.83.71-.52.72.52-.28-.83.72-.52h-.88zM27.47 10.08l-.27.84h-.88l.71.52-.27.83.71-.51.72.51-.28-.83.72-.52h-.88zM27.47 14.33l-.27.83h-.88l.71.52-.27.84.71-.52.72.52-.28-.84.72-.52h-.88zM27.75 19.4l-.28-.83-.27.83h-.88l.71.52-.27.84.71-.52.72.52-.28-.84.72-.52zM29.53 5.07l-.27.84.71-.52.71.52-.27-.84.71-.51h-.88l-.27-.84-.27.84h-.88zM29.97 7.96l-.27.84h-.88l.71.52-.27.83.71-.51.71.51-.27-.83.71-.52h-.88zM29.97 12.2l-.27.84h-.88l.71.52-.27.84.71-.52.71.52-.27-.84.71-.52h-.88zM29.97 16.45l-.27.83h-.88l.71.52-.27.84.71-.52.71.52-.27-.84.71-.52h-.88zM30.24 21.52l-.27-.83-.27.83h-.88l.71.52-.27.84.71-.52.71.52-.27-.84.71-.52z"/></g>
</symbol><symbol id="heart-active" viewBox="0 0 13 11">
<path d="M12,1c-1.3-1.3-3.4-1.3-4.7,0L6.5,1.7L5.7,1C4.4-0.3,2.3-0.3,1,1c-1.3,1.3-1.3,3.4,0,4.6l0.8,0.8L6.5,11l4.7-4.6L12,5.6  C13.3,4.3,13.3,2.2,12,1z"/>
</symbol><symbol id="heart" viewBox="0 0 20 17">
<path d="M18.5,1.5c-2-2-5.3-2-7.3,0L10,2.7L8.8,1.5c-2-2-5.3-2-7.3,0c-2,2-2,5.2,0,7.2l1.2,1.2L10,17l7.3-7.2l1.2-1.2
  C20.5,6.7,20.5,3.5,18.5,1.5z M14.9,9.8L10,14.6L5.1,9.8L2.7,7.5C1.4,6.1,1.4,4,2.7,2.7c1.3-1.3,3.5-1.3,4.9,0L10,5.1l2.4-2.4
  c1.3-1.3,3.5-1.3,4.9,0c1.3,1.3,1.3,3.5,0,4.8L14.9,9.8z"/>
</symbol><symbol id="htmlacademy" viewBox="0 0 27 34">
<style type="text/css">
  .st0{fill:#231F20;}
</style>
<path class="st0" d="M13.6,0l-0.2,0L0,1.4V26l13.5,8L27,26l0,0V1.4L13.6,0z M19.3,16.8l-0.9,0.5l-5-3l0,1.4l3.8,2.3l-0.8,0.5l-3-1.8
  l0,1.4l1.9,1.1l-1.8,1.1L2,13.6l11.4-6.8L25,13.5l-4.5,2.6l-7.1-4.2l0,1.4L19.3,16.8z M1.9,15.1l11.4,6.8l0,1l-8-4.7l0,1.4l8,4.8
  l0,1.1l-8-4.7l0,1.4l8,4.8l0,0l8.2-4.9v-1.3l0-0.1V17l3.4-2v10l-11.6,6.9L1.9,24.9V15.1z M1.9,12.1V3.1l11.6-1.2l11.6,1.2v9
  L13.5,5.3l0-0.1l-0.1,0l-0.1,0v0.1L1.9,12.1z"/>
</symbol><symbol id="instagram" viewBox="0 0 23 23">
<style type="text/css">
  .st0{fill:#231F20;}
</style>
<path class="st0" d="M17,1.5c2.5,0,4.5,2,4.5,4.5v11c0,2.5-2,4.5-4.5,4.5H6c-2.5,0-4.5-2-4.5-4.5V6c0-2.5,2-4.5,4.5-4.5L17,1.5
  M17,0H6C2.7,0,0,2.7,0,6v11c0,3.3,2.7,6,6,6h11c3.3,0,6-2.7,6-6V6C23,2.7,20.3,0,17,0L17,0z"/>
<path class="st0" d="M11.5,7.1c2.4,0,4.4,2,4.4,4.4c0,2.4-2,4.4-4.4,4.4c-2.4,0-4.4-2-4.4-4.4C7.1,9.1,9.1,7.1,11.5,7.1 M11.5,5.6
  c-3.3,0-5.9,2.7-5.9,5.9s2.7,5.9,5.9,5.9s5.9-2.7,5.9-5.9S14.8,5.6,11.5,5.6L11.5,5.6z"/>
<circle class="st0" cx="17.6" cy="5.4" r="1.3"/>
</symbol><symbol id="map-marker" viewBox="-9 -9 54 54">
<style type="text/css">
  .st0{fill:#FFFFFF;}
  .st1{fill:#192144;}
</style>
<circle class="st0" cx="18" cy="18" r="27"/>
<circle class="st1" cx="18" cy="18" r="11.8"/>
</symbol><symbol id="menu-close" viewBox="0 0 18 18">
<style type="text/css">
  .st0{fill:#606161;}
</style>
<path class="st0" d="M10.3,9l7.4-7.4c0.4-0.4,0.4-0.9,0-1.3s-0.9-0.4-1.3,0L9,7.7L1.6,0.3c-0.4-0.4-0.9-0.4-1.3,0s-0.4,0.9,0,1.3
  L7.7,9l-7.4,7.4c-0.4,0.4-0.4,0.9,0,1.3v0c0.4,0.4,0.9,0.4,1.3,0L9,10.3l7.4,7.4c0.4,0.4,0.9,0.4,1.3,0v0c0.4-0.4,0.4-0.9,0-1.3
  L10.3,9z"/>
</symbol><symbol id="menu" viewBox="0 0 25 11">
<g>
  <path d="M1.5,3h22C24.3,3,25,2.3,25,1.5S24.3,0,23.5,0h-22C0.7,0,0,0.7,0,1.5S0.7,3,1.5,3z"/>
  <path d="M23.5,8h-22C0.7,8,0,8.7,0,9.5S0.7,11,1.5,11h22c0.8,0,1.5-0.7,1.5-1.5S24.3,8,23.5,8z"/>
</g>
</symbol><symbol id="month-arrow-left" viewBox="0 0 18 34">
<path d="M3.6,17l14-14.4c0.6-0.6,0.6-1.6,0-2.1c-0.6-0.6-1.5-0.6-2.1,0L0.4,15.9c-0.6,0.6-0.6,1.6,0,2.1l15.1,15.5
  c0.3,0.3,0.7,0.4,1,0.4s0.8-0.1,1-0.4c0.6-0.6,0.6-1.6,0-2.1L3.6,17z"/>
</symbol><symbol id="month-arrow-right" viewBox="0 0 18 34">
<path d="M14.4,17L0.4,2.6C-0.1,2-0.1,1,0.4,0.4c0.6-0.6,1.5-0.6,2.1,0l15.1,15.5c0.6,0.6,0.6,1.6,0,2.1L2.5,33.6
  c-0.3,0.3-0.7,0.4-1,0.4s-0.8-0.1-1-0.4c-0.6-0.6-0.6-1.6,0-2.1L14.4,17z"/>
</symbol><symbol id="plane" viewBox="0 0 19 21">
<path d="M18.9,18.9c-0.1-0.3-3.7-10.1-3.7-10.1c0,0,0,0,0,0c-0.1-0.5,0.1-0.7,0.3-1.1c0,0,2.1-3.5,2.8-4.6c0.7-1.2,0.6-2.3-0.1-2.8
  c-0.7-0.5-1.7-0.1-2.5,1c-0.8,1.1-3,4.5-3,4.5c-0.3,0.4-0.4,0.7-0.9,0.8c0,0,0,0,0,0C11.7,6.5,1.5,7,1.2,7c-0.3,0-0.7,0.1-1,0.6
  C-0.2,8.3,0,8.5,0.4,8.6c0,0,8,2.6,8.3,2.7C9,11.3,9,11.5,8.9,11.9c-0.2,0.4-1.4,2.3-1.6,2.6c-0.1,0.2-0.2,0.2-0.4,0.3l-2.8,1
  c-0.1,0-0.3,0.1-0.4,0.3c0,0-0.2,0.3-0.4,0.6c-0.2,0.3-0.1,0.5,0.2,0.5c0.3,0.1,2.1,0.2,2.1,0.2c0,0,0.3,0.1,0.4,0.1
  c0.2,0.1,0.4,0.3,0.2,0.6c-0.3,0.6-0.4,1.2-0.2,1.3s0.6-0.2,1-0.7c0.2-0.3,0.4-0.2,0.6,0C7.8,18.6,8,18.8,8,18.8c0,0,0.8,1.6,1,1.9
  c0.2,0.3,0.4,0.3,0.6,0c0.2-0.3,0.4-0.6,0.4-0.6c0.1-0.1,0.1-0.3,0.1-0.5l-0.3-3.1c0-0.2,0-0.2,0.1-0.5c0.1-0.2,1.4-2.2,1.6-2.5
  c0.2-0.3,0.4-0.3,0.6-0.1c0.2,0.2,5.7,6.7,5.7,6.7c0.3,0.3,0.5,0.4,0.9-0.2C19.1,19.5,19,19.1,18.9,18.9z"/>
</symbol><symbol id="qty-minus-mobile" viewBox="0 0 14 2">
<style type="text/css">
  .st0{fill:#606161;}
</style>
<rect class="st0" width="14" height="2"/>
</symbol><symbol id="qty-minus" viewBox="0 0 20 2">
<style type="text/css">
  .st0{fill:#606161;}
</style>
<rect class="st0" width="20" height="2"/>
<rect class="st0" width="20" height="2"/>
</symbol><symbol id="qty-plus-mobile" viewBox="0 0 14 14">
<style type="text/css">
  .st0{fill:#606161;}
</style>
<polygon class="st0" points="8,6 8,0 6,0 6,6 0,6 0,8 6,8 6,14 8,14 8,8 14,8 14,6 "/>
</symbol><symbol id="qty-plus" viewBox="0 0 20 20">
<style type="text/css">
  .st0{fill:#606161;}
</style>
<polygon class="st0" points="20,9 11,9 11,0 9,0 9,9 0,9 0,11 9,11 9,20 11,20 11,11 20,11 "/>
</symbol><symbol id="return" viewBox="0 0 32 16.1">
<style type="text/css">
  .st0{fill:#010101;}
</style>
<path class="st0" d="M27.6,2.1H10L10,0L0,3l10,2.9l0-1.8h17.6c0.4,0,2.4,0,2.4,2v6.1c0,0.5-0.1,0.9-0.4,1.2C29,14,28,14.1,27.6,14.1
  H4v2h23.6c0,0,0,0,0.1,0c0.4,0,2.1-0.1,3.2-1.2c0.7-0.7,1.1-1.6,1.1-2.7V6.1C32,4.1,29.4,2.1,27.6,2.1z"/>
</symbol><symbol id="run" viewBox="0 0 20 21">
<g>
  <ellipse cx="14.3" cy="2" rx="2.1" ry="2"/>
  <path d="M19.4,4.6c-0.5-0.2-1.2-0.1-1.4,0.4l-0.9,1.6L13,4.3c-0.2-0.1-0.3-0.1-0.6-0.1H7.9C7.5,4.2,7.2,4.3,7,4.7L5.3,7.6
    C5,8.1,5.2,8.7,5.7,8.9C5.9,9,6.1,9,6.2,9C6.6,9,7,8.8,7.2,8.5l1.4-2.4h1.6l-4.7,8.1H1.1c-0.6,0-1.1,0.4-1.1,1s0.5,1,1.1,1h5
    c0.4,0,0.7-0.2,0.9-0.5l1.9-3.2l3,2.6L11.7,20c-0.1,0.5,0.4,1,1,1c0,0,0,0,0.1,0c0.6,0,1-0.4,1.1-0.9l0.3-5.4
    c0-0.3-0.1-0.6-0.3-0.8l-2.6-2.2l2.7-4.6l3.1,1.8C17.1,9,17.5,9.1,17.7,9c0.3-0.1,0.5-0.2,0.7-0.5L19.9,6C20.2,5.5,20,4.9,19.4,4.6
    z"/>
</g>
</symbol><symbol id="show-more-plus" viewBox="0 0 27 27">
<path d="M25.5,12H15V1.5C15,0.7,14.3,0,13.5,0S12,0.7,12,1.5V12H1.5C0.7,12,0,12.7,0,13.5S0.7,15,1.5,15H12v10.5
  c0,0.8,0.7,1.5,1.5,1.5s1.5-0.7,1.5-1.5V15h10.5c0.8,0,1.5-0.7,1.5-1.5S26.3,12,25.5,12z"/>
</symbol><symbol id="small-arrow" viewBox="0 0 5 10">
<style type="text/css">
  .st0{fill:#606161;}
</style>
<polygon class="st0" points="3,8.1 3,0 2,0 2,8.1 0,6.1 0,7.5 2.5,10 5,7.5 5,6.1 "/>
</symbol><symbol id="small-cross" viewBox="0 0 9 9">
<path d="M5.2,4.5l3.7-3.7C9,0.6,9,0.3,8.9,0.1S8.4,0,8.2,0.1L4.5,3.8L0.8,0.1C0.6,0,0.3,0,0.1,0.1S0,0.6,0.1,0.8l3.7,3.7L0.1,8.2
  C0,8.4,0,8.7,0.1,8.9C0.2,9,0.4,9,0.5,9s0.2,0,0.3-0.1l3.7-3.7l3.7,3.7C8.3,9,8.4,9,8.5,9s0.2,0,0.3-0.1C9,8.7,9,8.4,8.9,8.2
  L5.2,4.5z"/>
</symbol><symbol id="tick" viewBox="0 0 12 12">
<polygon points="12,0 3.8,8 0,4.3 0,8.3 3.8,12 12,4 "/>
</symbol><symbol id="topmenu-mail" viewBox="0 0 18 14">
<style type="text/css">
  .st0{fill:#231F20;}
</style>
<g>
  <g>
    <g>
      <path class="st0" d="M14.9,1.8c1.2-1,0.9-1.8-0.7-1.8H3.7C2.2,0,1.9,0.8,3.1,1.8l3.7,3.1c1.2,1,3.2,1,4.4,0L14.9,1.8z"/>
    </g>
    <g>
      <path class="st0" d="M11.9,7.1c-1.2,1-2.2,1.8-2.2,1.8c0,0,0,0,0,0C9.6,9,9.5,9,9.4,9c0,0-0.1,0-0.1,0C9.2,9.1,9.1,9.1,9,9.1
        c0,0,0,0,0,0c0,0,0,0,0,0l0,0c0,0,0,0,0,0c-0.1,0-0.2,0-0.3-0.1c0,0-0.1,0-0.1,0C8.5,9,8.4,9,8.3,8.9c0,0,0,0,0,0
        c0,0-1-0.8-2.2-1.8L2.2,3.8C1,2.8,0,3.3,0,4.8v6.3C0,12.7,1.3,14,2.8,14h12.3c1.6,0,2.8-1.3,2.8-2.8V4.8c0-1.6-1-2-2.2-1
        L11.9,7.1z"/>
    </g>
  </g>
</g>
</symbol><symbol id="topmenu-phone" viewBox="0 0 18 18">
<style type="text/css">
  .st0{fill:#231F20;}
</style>
<g>
  <g id="UrwUhy_1_">
    <g>
      <path class="st0" d="M12.6,18c-0.3,0-0.5,0-0.8,0c-3.6-0.4-6.2-2.1-8.1-4.3C1.8,11.6,0.3,8.8,0,5c0-0.3,0-0.7,0-1
        c0.1-0.7,0.4-1.1,0.8-1.5C1.2,2,2,1.4,2.6,1.3c0.5,0,1.3,0.3,1.6,0.8c0.3,0.4,0.4,1.2,0.6,1.8c0.1,0.6,0.4,1.4,0.4,2
        C5,6.8,3.9,7.2,3.5,7.8c1.1,2.8,3,4.8,5.4,6.2c0.6-0.3,1.2-1.4,2-1.4c0.3,0,0.7,0.2,1,0.3c0.3,0.1,0.6,0.2,1,0.4
        c0.5,0.2,1.4,0.5,1.7,0.9c0.3,0.4,0.5,1.2,0.4,1.7C14.9,16.7,13.4,17.7,12.6,18z"/>
    </g>
  </g>
  <path class="st0" d="M9.1,1.1c4.3,0,7.8,3.6,7.8,8H18c0-5-4-9.1-8.9-9.1L9.1,1.1z"/>
  <path class="st0" d="M9.1,6.9V8c0.6,0,1,0.5,1,1.1h1.1C11.2,7.9,10.3,6.9,9.1,6.9z"/>
  <path class="st0" d="M9.1,4.6c2.4,0,4.4,2,4.4,4.5h1.2c0-3.1-2.5-5.7-5.5-5.7V4.6L9.1,4.6z"/>
</g>
</symbol><symbol id="triangle-arrow-left" viewBox="0 0 10 14">
<polygon points="0,7.1 10,0.1 10,14 "/>
</symbol><symbol id="triangle-arrow-right" viewBox="0 0 10 14">
<polygon points="0,14 0,0.1 10,7.1 "/>
</symbol><symbol id="user" viewBox="0 0 20 20">
<g id="icons">
  <g id="user">
    <ellipse cx="10" cy="6" rx="5" ry="6"/>
    <path d="M19.8,17.1c-0.9-1.8-2.6-3.3-4.8-4.2c-0.6-0.2-1.3-0.2-1.8,0.1c-1,0.6-2,0.9-3.2,0.9S7.8,13.6,6.8,13
      c-0.5-0.2-1.2-0.3-1.8,0c-2.2,0.9-3.9,2.4-4.8,4.2C-0.5,18.5,0.6,20,2.1,20h15.8C19.4,20,20.5,18.5,19.8,17.1z"/>
  </g>
</g>
</symbol><symbol id="vk" viewBox="0 0 30 15.8">
<g>
  <path d="M23.9,15.8c-0.4,0-1.2-0.1-2.1-0.6c-0.6-0.4-1.2-1-1.8-1.5c-0.4-0.4-1.2-1.2-1.4-1.2c-0.3,0.1-0.5,0.9-0.5,1.6
    c0,0.1,0,0.8-0.5,1.2c-0.4,0.4-1.1,0.5-1.2,0.5l-1.9,0c-1,0-4.4-0.2-7.4-3c-3.7-3.4-6.8-9.8-7-10.1C0,2.2-0.1,1.5,0.3,1.1
    c0.4-0.4,1.1-0.5,1.4-0.5l4.1,0l0.1,0c0.1,0,0.6,0.1,1,0.3c0.4,0.2,0.6,0.7,0.6,0.7c0,0,0.6,1.4,1.5,2.7c1.3,2,1.9,2.5,2.1,2.6
    c0.2-0.4,0.3-1.7,0.2-2.9c0-0.5-0.1-1.1-0.3-1.3c-0.1-0.1-0.4-0.3-0.8-0.3L9.5,1.8c-0.1-0.7,0.6-1.2,1.1-1.4
    C11.3,0.1,12.4,0,13.7,0l0.7,0c1.2,0,1.6,0.1,2.1,0.2c1.7,0.4,1.6,1.7,1.6,3.3c0,0.5,0,1,0,1.6c0,0.2,0,0.3,0,0.5
    c0,0.4,0,1,0.1,1.3c0.2-0.1,0.9-0.7,2.1-2.5c0.8-1.2,1.4-2.5,1.5-2.8l0,0c0.2-0.4,0.6-0.9,1.6-0.9l4.3,0c0,0,0.2,0,0.4,0
    c1,0,1.6,0.3,1.8,0.9c0.3,0.6,0.2,1.7-2.4,4.6c-0.4,0.4-0.7,0.8-1,1.1c-0.6,0.7-1.2,1.4-1.2,1.6C25.4,9,26,9.5,26.6,10
    c1.5,1.2,2.5,2.3,3,3.1c0.5,0.8,0.4,1.3,0.3,1.7c-0.4,0.9-1.6,1-1.9,1l-3.8,0C24.1,15.8,24.1,15.8,23.9,15.8z M18.6,10.9
    c0.9,0,1.7,0.8,2.5,1.6c0.5,0.5,1,1,1.5,1.3c0.7,0.4,1.3,0.4,1.4,0.4l0.1,0l3.8,0c0.2,0,0.4-0.1,0.5-0.1c0,0,0-0.1-0.1-0.2
    c-0.4-0.7-1.4-1.7-2.7-2.7c-1.2-1-1.8-1.5-1.9-2.2c-0.1-0.8,0.5-1.4,1.6-2.7c0.3-0.3,0.6-0.7,1-1.1c1.6-1.8,2-2.6,2.1-3
    c-0.2,0-0.6,0-0.7,0l-4.4,0c-0.2,0-0.2,0-0.2,0c-0.2,0.4-0.8,1.8-1.6,3c-1.9,2.8-2.8,3.2-3.4,3.2c-0.2,0-0.4,0-0.6-0.1
    c-1-0.6-1-1.8-0.9-2.8c0-0.1,0-0.3,0-0.4c0-0.6,0-1.2,0-1.7c0.1-1.7,0-1.7-0.4-1.8c-0.4-0.1-0.7-0.1-1.9-0.2l-0.7,0
    c-0.6,0-1.3,0-1.9,0.1c0.1,0.1,0.2,0.2,0.3,0.3c0.6,0.7,0.6,2,0.6,2.2c0.1,1.6,0.1,3.8-1,4.3c-0.2,0.1-0.4,0.1-0.6,0.1
    c-0.9,0-1.9-0.9-3.4-3.3C6.8,3.9,6.1,2.4,6.1,2.3c0,0-0.1-0.1-0.1-0.1C5.9,2.2,5.8,2.1,5.7,2.1l-4,0c0,0,0,0-0.1,0
    C2.2,3.3,5,8.7,8.1,11.6c2.7,2.5,5.8,2.6,6.4,2.6l1.9,0c0,0,0.2-0.1,0.3-0.1c0,0,0-0.1,0-0.1c0-0.3,0-2.6,1.6-3
    C18.4,10.9,18.5,10.9,18.6,10.9z"/>
</g>
</symbol></symbol><symbol id="tick" viewBox="0 0 12 12">
<polygon points="12,0 3.8,8 0,4.3 0,8.3 3.8,12 12,4 "/>
</symbol><symbol id="topmenu-mail" viewBox="0 0 18 14">
<style type="text/css">
  .st0{fill:#231F20;}
</style>
<g>
  <g>
    <g>
      <path class="st0" d="M14.9,1.8c1.2-1,0.9-1.8-0.7-1.8H3.7C2.2,0,1.9,0.8,3.1,1.8l3.7,3.1c1.2,1,3.2,1,4.4,0L14.9,1.8z"/>
    </g>
    <g>
      <path class="st0" d="M11.9,7.1c-1.2,1-2.2,1.8-2.2,1.8c0,0,0,0,0,0C9.6,9,9.5,9,9.4,9c0,0-0.1,0-0.1,0C9.2,9.1,9.1,9.1,9,9.1
        c0,0,0,0,0,0c0,0,0,0,0,0l0,0c0,0,0,0,0,0c-0.1,0-0.2,0-0.3-0.1c0,0-0.1,0-0.1,0C8.5,9,8.4,9,8.3,8.9c0,0,0,0,0,0
        c0,0-1-0.8-2.2-1.8L2.2,3.8C1,2.8,0,3.3,0,4.8v6.3C0,12.7,1.3,14,2.8,14h12.3c1.6,0,2.8-1.3,2.8-2.8V4.8c0-1.6-1-2-2.2-1
        L11.9,7.1z"/>
    </g>
  </g>
</g>
</symbol><symbol id="topmenu-phone" viewBox="0 0 18 18">
<style type="text/css">
  .st0{fill:#231F20;}
</style>
<g>
  <g id="UrwUhy_1_">
    <g>
      <path class="st0" d="M12.6,18c-0.3,0-0.5,0-0.8,0c-3.6-0.4-6.2-2.1-8.1-4.3C1.8,11.6,0.3,8.8,0,5c0-0.3,0-0.7,0-1
        c0.1-0.7,0.4-1.1,0.8-1.5C1.2,2,2,1.4,2.6,1.3c0.5,0,1.3,0.3,1.6,0.8c0.3,0.4,0.4,1.2,0.6,1.8c0.1,0.6,0.4,1.4,0.4,2
        C5,6.8,3.9,7.2,3.5,7.8c1.1,2.8,3,4.8,5.4,6.2c0.6-0.3,1.2-1.4,2-1.4c0.3,0,0.7,0.2,1,0.3c0.3,0.1,0.6,0.2,1,0.4
        c0.5,0.2,1.4,0.5,1.7,0.9c0.3,0.4,0.5,1.2,0.4,1.7C14.9,16.7,13.4,17.7,12.6,18z"/>
    </g>
  </g>
  <path class="st0" d="M9.1,1.1c4.3,0,7.8,3.6,7.8,8H18c0-5-4-9.1-8.9-9.1L9.1,1.1z"/>
  <path class="st0" d="M9.1,6.9V8c0.6,0,1,0.5,1,1.1h1.1C11.2,7.9,10.3,6.9,9.1,6.9z"/>
  <path class="st0" d="M9.1,4.6c2.4,0,4.4,2,4.4,4.5h1.2c0-3.1-2.5-5.7-5.5-5.7V4.6L9.1,4.6z"/>
</g>
</symbol><symbol id="triangle-arrow-left" viewBox="0 0 10 14">
<polygon points="0,7.1 10,0.1 10,14 "/>
</symbol><symbol id="triangle-arrow-right" viewBox="0 0 10 14">
<polygon points="0,14 0,0.1 10,7.1 "/>
</symbol><symbol id="user" viewBox="0 0 20 20">
<g id="icons">
  <g id="user">
    <ellipse cx="10" cy="6" rx="5" ry="6"/>
    <path d="M19.8,17.1c-0.9-1.8-2.6-3.3-4.8-4.2c-0.6-0.2-1.3-0.2-1.8,0.1c-1,0.6-2,0.9-3.2,0.9S7.8,13.6,6.8,13
      c-0.5-0.2-1.2-0.3-1.8,0c-2.2,0.9-3.9,2.4-4.8,4.2C-0.5,18.5,0.6,20,2.1,20h15.8C19.4,20,20.5,18.5,19.8,17.1z"/>
  </g>
</g>
</symbol><symbol id="vk" viewBox="0 0 30 15.8">
<g>
  <path d="M23.9,15.8c-0.4,0-1.2-0.1-2.1-0.6c-0.6-0.4-1.2-1-1.8-1.5c-0.4-0.4-1.2-1.2-1.4-1.2c-0.3,0.1-0.5,0.9-0.5,1.6
    c0,0.1,0,0.8-0.5,1.2c-0.4,0.4-1.1,0.5-1.2,0.5l-1.9,0c-1,0-4.4-0.2-7.4-3c-3.7-3.4-6.8-9.8-7-10.1C0,2.2-0.1,1.5,0.3,1.1
    c0.4-0.4,1.1-0.5,1.4-0.5l4.1,0l0.1,0c0.1,0,0.6,0.1,1,0.3c0.4,0.2,0.6,0.7,0.6,0.7c0,0,0.6,1.4,1.5,2.7c1.3,2,1.9,2.5,2.1,2.6
    c0.2-0.4,0.3-1.7,0.2-2.9c0-0.5-0.1-1.1-0.3-1.3c-0.1-0.1-0.4-0.3-0.8-0.3L9.5,1.8c-0.1-0.7,0.6-1.2,1.1-1.4
    C11.3,0.1,12.4,0,13.7,0l0.7,0c1.2,0,1.6,0.1,2.1,0.2c1.7,0.4,1.6,1.7,1.6,3.3c0,0.5,0,1,0,1.6c0,0.2,0,0.3,0,0.5
    c0,0.4,0,1,0.1,1.3c0.2-0.1,0.9-0.7,2.1-2.5c0.8-1.2,1.4-2.5,1.5-2.8l0,0c0.2-0.4,0.6-0.9,1.6-0.9l4.3,0c0,0,0.2,0,0.4,0
    c1,0,1.6,0.3,1.8,0.9c0.3,0.6,0.2,1.7-2.4,4.6c-0.4,0.4-0.7,0.8-1,1.1c-0.6,0.7-1.2,1.4-1.2,1.6C25.4,9,26,9.5,26.6,10
    c1.5,1.2,2.5,2.3,3,3.1c0.5,0.8,0.4,1.3,0.3,1.7c-0.4,0.9-1.6,1-1.9,1l-3.8,0C24.1,15.8,24.1,15.8,23.9,15.8z M18.6,10.9
    c0.9,0,1.7,0.8,2.5,1.6c0.5,0.5,1,1,1.5,1.3c0.7,0.4,1.3,0.4,1.4,0.4l0.1,0l3.8,0c0.2,0,0.4-0.1,0.5-0.1c0,0,0-0.1-0.1-0.2
    c-0.4-0.7-1.4-1.7-2.7-2.7c-1.2-1-1.8-1.5-1.9-2.2c-0.1-0.8,0.5-1.4,1.6-2.7c0.3-0.3,0.6-0.7,1-1.1c1.6-1.8,2-2.6,2.1-3
    c-0.2,0-0.6,0-0.7,0l-4.4,0c-0.2,0-0.2,0-0.2,0c-0.2,0.4-0.8,1.8-1.6,3c-1.9,2.8-2.8,3.2-3.4,3.2c-0.2,0-0.4,0-0.6-0.1
    c-1-0.6-1-1.8-0.9-2.8c0-0.1,0-0.3,0-0.4c0-0.6,0-1.2,0-1.7c0.1-1.7,0-1.7-0.4-1.8c-0.4-0.1-0.7-0.1-1.9-0.2l-0.7,0
    c-0.6,0-1.3,0-1.9,0.1c0.1,0.1,0.2,0.2,0.3,0.3c0.6,0.7,0.6,2,0.6,2.2c0.1,1.6,0.1,3.8-1,4.3c-0.2,0.1-0.4,0.1-0.6,0.1
    c-0.9,0-1.9-0.9-3.4-3.3C6.8,3.9,6.1,2.4,6.1,2.3c0,0-0.1-0.1-0.1-0.1C5.9,2.2,5.8,2.1,5.7,2.1l-4,0c0,0,0,0-0.1,0
    C2.2,3.3,5,8.7,8.1,11.6c2.7,2.5,5.8,2.6,6.4,2.6l1.9,0c0,0,0.2-0.1,0.3-0.1c0,0,0-0.1,0-0.1c0-0.3,0-2.6,1.6-3
    C18.4,10.9,18.5,10.9,18.6,10.9z"/>
</g>
</symbol></svg>